<svg xmlns="http://www.w3.org/2000/svg" viewBox="0 0 67.99 57.14"><defs><style>.cls-1{fill:#fff;}</style></defs><g id="Layer_2" data-name="Layer 2"><g id="Layer_1-2" data-name="Layer 1"><path d="M48.72,36.44a25.82,25.82,0,0,0,7.45-8.36l8.16,7.25a43.88,43.88,0,0,1-8.1,9.08L68,57H47l-4.18-4.64C37,54.4,28,57.14,19.2,57.14,5.88,57.14-.06,50,0,41.8,0,31.22,10.91,26.19,18.68,23.18A20.36,20.36,0,0,1,16,13.52C16,4.38,25.54,0,33.24,0c8.1,0,18,4.57,18,12.8,0,6.66-5,11.69-11.43,14.11ZM34.87,43.62l-10-11.42c-4.18,1.63-7.32,3.59-7.32,7.38C17.5,45.78,25.67,46.89,34.87,43.62Zm.2-34.22c-2.29,0-4.38,1.44-4.38,4a10.15,10.15,0,0,0,2.09,5.49c4.58-2,6.08-3.92,6.08-6.2C38.86,10.19,36.7,9.4,35.07,9.4Z"/><path class="cls-1" d="M53.62,54.73l-7.45-7.46h3l7.45,7.46Z"/><path class="cls-1" d="M42.44,42.8l-6-6h3l6,6Z"/><path class="cls-1" d="M32.75,32.36a15.21,15.21,0,0,1-2.24-2.24,15.65,15.65,0,0,1-2.24-3.72h2.24A18.8,18.8,0,0,0,32,28.63a20.42,20.42,0,0,0,3.73,3.73Z"/><path class="cls-1" d="M25.56,21.14a12.37,12.37,0,0,1-1.93-8.09l2.26.66a13.9,13.9,0,0,0,.15,3,13.68,13.68,0,0,0,1.74,4.72Z"/><path class="cls-1" d="M25.29,8.5a10.18,10.18,0,0,1,4.47-3.73A10,10,0,0,1,34.24,4c-.17.74-.33,1.48-.5,2.22a8.58,8.58,0,0,0-6.21,3Z"/><path class="cls-1" d="M39,4.7a10,10,0,0,1,4.4,3.81,9.89,9.89,0,0,1,1.46,4.29l-2.27-.13A8.57,8.57,0,0,0,41.32,9.6,8.84,8.84,0,0,0,38.63,7C38.75,6.25,38.87,5.47,39,4.7Z"/><path class="cls-1" d="M44.25,18a10.24,10.24,0,0,1-3.81,4.4,10,10,0,0,1-4.3,1.46,9.94,9.94,0,0,0,4.43-3.46,9.68,9.68,0,0,0,1.35-2.78Z"/></g></g></svg>