<svg width="687" height="502" viewBox="0 0 687 502" fill="none" xmlns="http://www.w3.org/2000/svg">
<g opacity="0.7">
<g clip-path="url(#clip0)">
<path d="M386.464 840.605C390.848 839.63 394.277 840.415 396.075 837.943C397.659 835.734 396.055 833.463 398.047 831.236C398.935 830.254 400.45 829.739 403.579 828.747C407.431 827.513 407.448 827.921 408.731 827.261C411.818 825.622 411.206 823.154 414.471 819.69C415.466 818.577 417.486 817.335 421.455 814.884C426.576 811.666 428.712 810.871 428.82 809.077C428.934 807.113 426.434 805.992 426.953 804.927C427.479 803.693 430.742 805.218 434.802 803.891C435.801 803.525 439.068 802.47 440.403 799.708C441.516 797.378 440.255 795.867 441.683 793.312C442.454 791.884 443.574 791.047 444.518 790.373C448.086 787.77 450.14 789.008 452.125 786.951C453.826 785.188 454.006 782.446 454.096 780.244C454.28 776.586 453.097 775.621 453.993 774.47C455.538 772.361 459.532 775.137 463.224 772.811C465.351 771.438 466.955 768.721 466.89 766.173C466.8 763.386 464.74 762.318 465.403 761.021C466.143 759.524 469.176 760.904 472.941 759.293C473.84 758.889 477.474 757.171 478.612 753.416C479.552 750.332 478.429 747.096 477.917 746.328L477.886 746.259C477.651 745.367 482.606 744.551 484.87 741.454C486.883 738.719 484.826 736.734 486.911 733.052C488.118 730.93 488.913 731.403 491.51 728.489C493.218 726.556 496.344 723.154 497.008 718.532C497.606 714.687 495.999 713.332 497.285 711.755C499.145 709.422 503.014 711.922 506.206 709.405C509.29 707.02 509.259 701.961 509.249 701.384C509.242 698.227 507.876 697.595 508.454 695.921C509.678 692.543 515.642 693.602 516.821 690.494C517.963 687.486 513.223 684.713 514.471 681.573C515.339 679.437 517.721 680.111 521.456 676.768C523.25 675.212 525.366 673.263 525.432 670.822C525.571 667.433 521.667 665.78 522.321 663.907C523.006 662.102 526.753 663.409 529.236 660.795C531.044 658.901 531.155 656.19 531.207 654.088C531.381 649.853 529.783 649.075 530.482 646.931C531.789 643.183 537.214 644.152 538.538 640.812C540.198 636.739 533.049 632.306 534.632 628.434C536.064 624.963 542.709 626.796 544.694 623.076C547.007 618.792 539.899 613.343 542.24 608.382C543.949 604.786 548.488 605.82 549.605 602.574C551.262 597.754 542.314 592.467 544.074 588.432C545.385 585.431 550.996 586.815 552.062 584.008C553.614 580.066 543.664 574.399 545.148 570.488C546.251 567.581 552.371 568.985 553.826 565.752C555.472 562.019 548.454 557.693 549.92 553.374C551.235 549.457 557.89 550.205 558.668 546.944C559.664 542.505 548.248 537.83 549.369 533.667C550.209 530.545 557.09 531.607 558.428 527.928C560.064 523.617 551.451 519.26 552.586 513.096C553.406 508.819 558.039 508.397 558.015 504.833C558.022 499.674 548.234 497.509 548.646 493.25C549.023 489.837 555.62 489.53 556.08 485.748C556.471 481.996 550.234 480.146 550.411 474.994C550.432 474.486 550.477 474.217 552.313 469.981C555.909 461.711 556.477 461.124 556.117 459.955C554.921 456.003 546.371 456.773 545.849 453.765C545.445 451.203 551.651 449.658 551.589 446.194C551.541 442.391 544.128 441.07 544.156 437.066C544.16 434.487 547.106 433.826 547.441 431.43C548.074 426.739 534.891 424.604 534.995 420.4C535.065 417.043 543.114 416.083 543.121 412.587C543.076 409.531 536.69 408.828 533.372 402.006C532.681 400.655 532.058 399.272 532.197 397.546C532.577 393.218 537.321 391.749 536.934 389.595C536.326 386.21 523.589 387.284 522.586 383.577C521.739 380.217 531.669 376.414 530.85 372.376C530.024 368.507 520.157 369.122 518.957 364.423C518.142 361.131 522.536 359.071 521.69 355.71C520.577 351.389 512.773 352.155 511.491 347.827C510.295 343.875 516.187 340.891 514.984 337.109C513.57 332.673 504.498 333.761 503.091 329.156C502.106 325.857 506.199 323.683 505.131 320.754C503.448 316.273 492.415 317.994 491.475 314.426C490.77 311.75 496.772 309.382 496.212 306.474C495.431 302.336 482.718 303.649 480.931 298.383C479.752 294.839 484.69 291.952 483.352 288.979C481.361 284.553 468.924 287.404 467.621 283.584C466.864 281.347 470.806 279.573 470.284 276.565C469.479 272.188 460.597 272.775 458.772 267.61C457.531 263.927 461.23 261.431 459.809 258.828C457.348 254.281 444.261 258.09 443.007 254.747C442.274 252.748 446.606 250.55 445.981 248.42C444.847 244.606 429.98 247.969 427.864 243.267C426.246 239.671 433.445 234.603 431.737 231.546C429.805 228.175 419.923 232.455 416.94 228.226C414.886 225.325 418.202 221.422 416.284 219.375C413.158 216.125 402.042 223.205 400.276 220.757C398.958 218.938 404.85 214.292 403.388 211.041C401.677 207.238 392.445 210.56 388.349 205.335C385.77 202.006 387.879 198.562 385.307 196.726C381.545 194.095 374.758 199.892 372.376 197.555C370.45 195.677 374.25 191.556 372.1 187.701C370.206 184.23 364.439 182.501 360.38 183.828C357.973 184.578 357.541 186.02 356.231 185.694C352.97 184.916 354.821 175.353 350.631 173.247C347.205 171.546 343.294 176.714 339.705 174.837C336.317 173.035 338.108 167.407 334.658 165.467C331.107 163.489 327.141 168.35 323.421 166.365C319.801 164.418 321.631 158.689 318.374 156.995C313.821 154.636 306.694 163.746 302.919 161.453C299.839 159.597 302.847 152.423 299.635 150.459C296.061 148.242 289.65 155.616 285.944 153.292C283.064 151.512 285.588 146.219 282.591 143.992C278.442 140.869 270.054 148.468 265.58 144.993C263.44 143.378 264.623 141.017 262.4 139.772C258.787 137.656 254.354 143.142 249.78 141.292C246.641 140.044 247.65 136.929 244.594 135.31C238.983 132.264 232.023 140.634 226.512 137.625C223.324 135.9 224.147 132.37 221.326 131.644C216.963 130.447 213.38 138.378 208.879 137.244C205.688 136.434 206.369 132.22 202.69 130.881C198.21 129.239 194.631 134.591 189.379 132.713C186.803 131.793 187.104 130.244 184.746 129.808C180.871 129.14 178.948 132.999 174.443 132.781C172.071 132.684 172.32 131.574 169.43 130.879C163.079 129.329 159.991 134.294 154.424 132.641C151.071 131.655 151.593 129.674 148.789 129.356C143.319 128.657 140.712 135.983 135.65 135.267C132.176 134.751 132.152 131.187 128.701 130.91C124.673 130.643 123.325 135.408 118.329 135.577C115.065 135.715 115.01 133.744 111.621 133.605C105.861 133.37 104.108 138.898 98.8629 138.514C95.0045 138.254 95.06 135.236 91.5335 135.159C86.1433 135.007 84.3345 141.89 78.7058 141.762C75.6875 141.706 75.8709 139.712 72.6901 139.48C67.0752 139.012 65.2388 144.911 58.1683 146.013C54.0366 146.625 54.3514 144.737 50.3891 145.355C43.5571 146.434 42.713 152.135 35.1065 153.894C31.407 154.727 31.3552 153.503 27.9496 154.619C22.4452 156.431 22.2374 159.85 17.5076 160.98C13.0543 161.986 11.5332 159.344 8.34536 160.945C4.88086 162.67 6.05955 166.214 2.60538 168.516C-1.44004 171.168 -4.89029 167.565 -10.0144 170.037C-14.1013 172.042 -12.7877 174.776 -16.757 177.227C-22.8839 180.982 -29.0412 176.352 -32.8344 180.303C-34.6808 182.298 -33.5192 183.771 -35.4279 185.627C-38.9928 188.977 -44.1233 184.966 -49.7418 187.078C-55.9446 189.37 -53.722 195.604 -60.8413 201.218C-68.099 206.895 -74.0282 203.326 -78.8207 209.307C-82.1125 213.449 -79.9069 215.949 -83.3162 219.645C-88.0741 224.779 -93.7336 221.255 -98.8406 225.798C-104.653 230.99 -100.37 238.293 -105.999 243.153C-111.275 247.689 -116.427 242.523 -122.768 246.54C-131.028 251.836 -125.933 263.347 -135.286 270.465C-140.12 274.136 -143.729 272.767 -147.111 277.448C-150.385 281.997 -148.017 284.674 -150.673 289.86C-154.84 297.97 -162.788 295.643 -167.166 303.1C-171.253 310.094 -165.628 314.465 -169.622 321.667C-174.09 329.663 -182.702 326.969 -186.426 334.216C-190.815 342.759 -181.871 352.288 -186.705 357.622C-189.869 361.125 -194.349 357.819 -198.391 361.217C-204.581 366.496 -196.858 376.824 -202.197 387.874C-207.201 398.19 -217.531 396.851 -219.209 405.505C-220.873 413.82 -211.891 418.26 -214.266 425.732C-216.521 432.733 -225.196 431.563 -227.682 438.419C-230.708 446.848 -219.227 452.409 -220.873 462.795C-222.603 473.551 -236.201 474.929 -236.33 483.884C-236.434 493.077 -222.304 496.947 -223.608 504.768C-224.649 511.14 -234.406 510.707 -236.021 517.836C-237.789 525.366 -227.607 529.516 -228.451 540.206C-228.843 545.621 -231.539 545.171 -233.016 552.238C-234.78 560.515 -231.52 562.956 -231.22 574.711C-230.938 586.059 -233.901 586.311 -232.294 592.655C-229.871 602.291 -223.136 601.922 -219.814 611.154C-215.728 622.453 -224.5 626.981 -220.542 637.257C-216.46 647.81 -204.711 649.342 -204.743 657.588C-204.809 661.692 -208.65 661.841 -209.169 666.232C-209.962 673.157 -201.388 675.951 -196.067 686.113C-190.778 696.206 -196.425 698.995 -191.575 709.036C-186.6 719.353 -179.979 717.622 -172.076 730.197C-166.818 738.558 -169.539 739.532 -164.299 747.485C-156.624 758.999 -150.262 757.8 -145.112 767.955C-140.497 777.103 -144.749 779.848 -140.1 786.487C-133.365 796.096 -123.276 791.723 -115.934 801.39C-110.039 809.132 -114.572 814.581 -108.225 820.372C-102.04 825.988 -96.2209 822.289 -89.5555 828.603C-84.0344 833.852 -86.4411 837.928 -81.2587 841.5C-74.524 846.119 -68.034 840.954 -62.7618 845.65C-58.34 849.564 -61.7287 854.415 -57.8533 858.408C-51.0462 865.407 -36.4722 855.108 -28.8111 861.972C-23.245 866.951 -28.214 874.758 -22.7274 879.191C-15.3013 885.162 -1.99276 874.269 5.38142 880.68C9.24655 884.096 6.3835 887.712 10.3592 891.744C17.2044 898.642 28.2689 890.338 38.6406 897.313C44.2552 901.106 43.0482 904.892 49.0812 907.582C54.281 909.899 56.041 907.527 65.3311 908.586C75.769 909.794 76.3772 913.178 82.8254 912.356C90.9124 911.295 93.2121 905.688 97.9694 907.206C102.727 908.724 101.668 914.688 106.405 916.714C112.908 919.526 118.423 909.977 126.631 911.772C134.199 913.439 134.133 922.532 141.082 923.563C148.101 924.563 150.501 915.667 159.753 915.163C167.304 914.759 169.548 920.485 176.487 920.938C186.945 921.638 189.073 905.298 199.203 904.898C205.9 904.629 206.522 911.001 214.364 911.797C224.809 912.835 227.292 901.906 240.641 899.974C250.882 898.526 253.803 904.28 261.973 901.186C269.867 898.217 268.377 892.318 276.081 888.187C288.193 881.657 298.99 892.349 308.097 885.424C313.982 880.947 311.092 875.263 317.502 871.215C324.75 866.624 330.343 872.588 338.662 868.347C346.359 864.385 343.697 858.099 351.836 853.274C359.906 848.479 363.827 853.866 373.757 848.4C379.763 845.116 380.434 841.987 386.464 840.605Z" stroke="#E26B13" stroke-width="2" stroke-miterlimit="10"/>
<path d="M292.303 806.887C452.133 734.979 524.453 549.441 453.834 392.475C383.215 235.509 196.399 166.555 36.5689 238.463C-123.261 310.371 -195.581 495.91 -124.962 652.876C-54.3434 809.841 132.473 878.795 292.303 806.887Z" stroke="#E26B13" stroke-width="2" stroke-miterlimit="10"/>
<path d="M299.977 826.716C470.692 749.912 547.935 551.734 472.505 384.075C397.075 216.415 197.535 142.763 26.8204 219.568C-143.894 296.372 -221.138 494.55 -145.708 662.209C-70.2777 829.869 129.262 903.521 299.977 826.716Z" stroke="#E26B13" stroke-width="2" stroke-miterlimit="10"/>
<path d="M310.64 860.582C497.586 776.475 581.483 557.92 498.029 372.425C414.575 186.93 195.372 104.739 8.42596 188.846C-178.52 272.953 -262.417 491.509 -178.963 677.004C-95.5086 862.499 123.694 944.69 310.64 860.582Z" stroke="#E26B13" stroke-width="2" stroke-miterlimit="10"/>
<path d="M201.561 619.055C255.41 594.828 279.424 531.534 255.197 477.684C230.97 423.835 167.677 399.821 113.827 424.048C59.9775 448.275 35.9636 511.568 60.1905 565.418C84.4175 619.268 147.711 643.281 201.561 619.055Z" stroke="#E26B13" stroke-width="2" stroke-miterlimit="10"/>
<path d="M198.153 604.457C244.288 583.7 264.862 529.474 244.105 483.339C223.349 437.204 169.123 416.631 122.988 437.387C76.8533 458.143 56.2797 512.369 77.0358 558.504C97.792 604.639 152.018 625.213 198.153 604.457Z" stroke="#E26B13" stroke-width="2" stroke-miterlimit="10"/>
<path d="M385.14 744.333L142.583 550.8" stroke="#E26B13" stroke-width="2" stroke-miterlimit="10"/>
<path d="M421.102 694.894L142.583 550.8" stroke="#E26B13" stroke-width="2" stroke-miterlimit="10"/>
<path d="M336.941 777.658L178.236 467.409" stroke="#E26B13" stroke-width="2" stroke-miterlimit="10"/>
<path d="M454.816 642.309L180.757 497.04" stroke="#E26B13" stroke-width="2" stroke-miterlimit="10"/>
<path d="M473.872 583.016L173.255 489.605" stroke="#E26B13" stroke-width="2" stroke-miterlimit="10"/>
<path d="M195.135 560.416L481.207 519.849" stroke="#E26B13" stroke-width="2" stroke-miterlimit="10"/>
<path d="M474.85 459.516L185.386 549.835" stroke="#E26B13" stroke-width="2" stroke-miterlimit="10"/>
<path d="M453.349 404.334L158.422 495.447" stroke="#E26B13" stroke-width="2" stroke-miterlimit="10"/>
<path d="M384.209 302.403L193.476 551.184" stroke="#E26B13" stroke-width="2" stroke-miterlimit="10"/>
<path d="M339.439 260.184L196.798 519.756" stroke="#E26B13" stroke-width="2" stroke-miterlimit="10"/>
<path d="M158.687 215.118L203.229 511.874" stroke="#E26B13" stroke-width="2" stroke-miterlimit="10"/>
<path d="M422.756 347.422L144.316 491.816" stroke="#E26B13" stroke-width="2" stroke-miterlimit="10"/>
<path d="M284.26 231.793L138.299 506.164" stroke="#E26B13" stroke-width="2" stroke-miterlimit="10"/>
<path d="M222.512 214.674L128.204 504.054" stroke="#E26B13" stroke-width="2" stroke-miterlimit="10"/>
<path d="M99.8763 217.464L196.798 519.756" stroke="#E26B13" stroke-width="2" stroke-miterlimit="10"/>
<path d="M-145.495 590.605L118.73 503.327" stroke="#E26B13" stroke-width="2" stroke-miterlimit="10"/>
<path d="M-151.92 531.967L148.05 500.114" stroke="#E26B13" stroke-width="2" stroke-miterlimit="10"/>
<path d="M-146.21 467.037L136.151 558.682" stroke="#E26B13" stroke-width="2" stroke-miterlimit="10"/>
<path d="M-128.157 407.363L119.142 543.053" stroke="#E26B13" stroke-width="2" stroke-miterlimit="10"/>
<path d="M-99.5255 354.57C-10.545 397.104 78.4667 439.707 167.447 482.241" stroke="#E26B13" stroke-width="2" stroke-miterlimit="10"/>
<path d="M-11.6992 265.168L117.276 522.274" stroke="#E26B13" stroke-width="2" stroke-miterlimit="10"/>
<path d="M36.2231 238.619L128.204 504.054" stroke="#E26B13" stroke-width="2" stroke-miterlimit="10"/>
<path d="M119.92 536.467C119.882 534.904 120.384 528.442 118.573 527.927C117.432 527.609 116.45 530.046 113.352 531.107C111.215 531.902 108.95 531.674 107.578 531.21C102.789 529.623 99.5986 522.162 101.044 516.689C102.801 510.244 109.536 511.538 115.843 503.379C122.081 495.251 119.855 488.27 124.696 486.092C129.813 483.79 134.417 494.024 141.049 492.87C147.68 491.716 147.287 481.416 153.531 478.108C164.807 472.121 195.998 489.518 201.829 517.077C205.323 533.715 200.003 555.897 183.569 565.203C156.085 580.811 119.954 550.587 119.92 536.467Z" fill="#E26B13"/>
</g>
</g>
<defs>
<clipPath id="clip0">
<rect width="798.54" height="785.497" fill="white" transform="translate(-364 327.632) rotate(-24.223)"/>
</clipPath>
</defs>
</svg>
