<svg width="47" height="48" viewBox="0 0 47 48" fill="none" xmlns="http://www.w3.org/2000/svg">
<path d="M21.5366 0.0201703C9.47287 1.12881 0 11.4145 0 23.938C0 37.2007 10.6064 47.9996 23.7429 47.9996C33.1753 47.9996 41.3122 42.4359 45.1176 34.3675C48.6598 25.3752 47.1012 15.2537 41.0491 8.27338C33.6408 -0.287785 23.0142 -0.0414208 21.5366 0.0201703ZM20.646 3.22291C21.0508 3.14079 21.4556 3.09973 21.8605 3.05866C22.0224 3.05866 22.1438 3.0176 22.2653 3.0176C22.3867 3.0176 22.5487 3.0176 22.6701 3.0176H22.7106H22.7511C22.913 3.0176 23.1154 3.0176 23.3178 3.0176C23.4393 3.0176 23.6012 3.0176 23.7631 3.0176H23.9655H24.006H24.0465C24.3299 3.0176 24.6133 3.0176 24.8966 3.05866C26.435 3.14079 27.9531 3.38715 29.3699 3.79776C29.4914 3.83882 29.5723 3.83882 29.6938 3.87988C30.0177 3.962 30.3415 4.08518 30.6654 4.20837C30.8273 4.29049 30.9892 4.33155 31.1512 4.41367C33.7218 5.39913 36.0293 6.87731 38.0534 8.8277L38.3368 9.11512L38.3773 9.15618C38.4177 9.19724 38.4987 9.27937 38.5392 9.32043L38.6606 9.44361C38.7416 9.52573 38.8226 9.64891 38.9035 9.73104C39.1667 9.93634 39.4096 10.1622 39.6525 10.4085C41.3932 12.1947 41.8992 14.453 42.0612 15.808C40.7657 15.1716 37.1425 13.3649 34.997 12.6053C34.7743 12.5232 34.5517 12.441 34.5517 12.441C33.8432 12.1947 32.4668 11.7635 30.7666 11.394C29.5926 11.1476 28.5401 10.9834 27.6292 10.8602C27.1434 10.7781 26.6576 10.7781 26.2528 10.737C25.3622 10.696 24.755 10.696 24.3906 10.696C23.1761 10.737 21.5366 10.8191 20.565 10.9013C20.5245 8.21179 20.565 4.94746 20.646 3.22291ZM44.5711 23.0552C44.9759 26.2785 44.0853 28.7832 43.6197 29.8713C42.4862 28.8448 40.8264 27.4077 38.7214 25.8679C37.5271 25.0056 36.3329 24.2255 35.7661 23.8559C32.6693 21.9261 26.8196 21.3923 24.1477 21.8029C23.3786 20.2836 20.9699 15.4179 20.727 12.4205C21.6985 12.3795 23.3381 12.2563 24.5121 12.2152C24.9978 12.2152 26.1314 12.2152 27.7709 12.3795C28.2567 12.4616 28.8234 12.5026 29.3902 12.6258C30.4022 12.7901 31.4953 13.0775 32.7705 13.406C33.0133 13.4676 33.6813 13.6729 34.5922 13.9808C35.9888 14.453 36.8794 14.8431 38.7821 15.6643C39.5715 15.9928 40.8062 16.5266 42.3648 17.1836C42.9922 18.1485 44.2067 20.181 44.5711 23.0552ZM10.6873 8.17073C10.6873 8.00648 10.6873 7.84224 10.6873 7.678C13.1365 5.66602 16.0108 4.20837 19.1077 3.51033C19.0267 5.74814 18.9457 9.81316 19.1481 12.5437C19.391 15.9312 21.9617 21.0227 22.7713 22.5625C21.8402 23.7122 18.9053 27.264 16.4358 29.5223C15.2214 27.5514 11.9625 22.1108 11.3148 18.6823C10.6469 15.0073 10.6873 10.5522 10.6873 8.17073ZM3.0969 23.938C3.0969 18.6617 5.04005 13.6318 8.54177 9.77209C8.78467 9.52573 8.98708 9.27937 9.22997 9.033C9.22997 11.5788 9.27046 15.5411 9.91817 18.9286C10.6469 22.7678 14.1891 28.619 15.3226 30.4667C15.1606 30.5899 14.9987 30.7131 14.8368 30.8363C11.9423 32.7661 7.61068 34.3469 6.13307 34.8397C4.18992 31.6575 3.0969 27.9004 3.0969 23.938ZM6.94272 36.1331C8.76443 35.5172 12.7519 34.039 15.6464 32.0886C18.5814 30.1177 23.1761 24.4718 24.1072 23.3221C25.9694 22.9526 30.4427 23.24 33.4991 24.4308C32.7705 25.95 30.7261 29.666 29.3092 31.5138C27.6899 33.6489 24.4311 36.5437 21.3747 38.5146C18.9862 40.0749 14.8368 41.4299 13.1972 41.9842C10.7278 40.465 8.62274 38.4941 6.94272 36.1331ZM43.1339 31.2058C43.0125 31.5753 42.8506 31.9449 42.6886 32.2734L42.6481 32.3555L42.6077 32.3966C42.6077 32.4376 42.5672 32.4787 42.5267 32.5608L42.4862 32.684L42.4457 32.8072C42.4457 32.8482 42.4053 32.8893 42.3648 32.9714C40.705 36.4821 38.0939 39.4385 34.8755 41.5326C31.5357 43.6677 27.6899 44.838 23.7429 44.838C20.6055 44.838 17.6503 44.1399 14.9987 42.8671C17.0228 42.169 20.1197 41.0193 22.1034 39.6848C25.3622 37.5907 28.6817 34.6549 30.4427 32.3555C31.8596 30.4667 33.9849 26.7918 34.7946 24.9851C34.8351 24.9851 34.8755 25.0262 34.8755 25.0262C37.8105 26.8739 42.4862 30.5899 43.0935 31.0826C43.1339 31.2058 43.1339 31.2058 43.1339 31.2058C43.1744 31.2058 43.1744 31.2058 43.1339 31.2058Z" fill="black"/>
<path d="M44.065 19.976C44.065 19.935 44.065 19.935 44.065 19.976C44.0245 19.935 44.065 19.935 44.065 19.9144C44.065 19.935 44.065 19.935 44.065 19.976Z" fill="black"/>
<path d="M44.065 19.9144C44.065 19.9144 44.0245 19.935 44.065 19.9144C44.065 19.9555 44.065 19.9555 44.065 19.976C44.065 19.935 44.065 19.935 44.065 19.9144Z" fill="white"/>
<path d="M43.0934 31.2062C43.0934 31.2062 43.0934 31.2472 43.1339 31.2472C43.1136 31.2472 43.1136 31.2472 43.0934 31.2062C43.0934 31.2472 43.0934 31.2472 43.0934 31.2062Z" fill="black"/>
</svg>
