<svg xmlns="http://www.w3.org/2000/svg" viewBox="0 0 798.31 804.06"><defs><style>.cls-1{fill:#e26b13;}.cls-2{fill:#fff;}</style></defs><g id="Layer_2" data-name="Layer 2"><g id="Layer_1-2" data-name="Layer 1"><g id="sporticon"><path id="Shape" class="cls-1" d="M366,.23C160.92,18.86,0,191.35,0,401.11,0,623.29,180.26,804.06,403.33,804.06c160.23,0,298.36-93.15,363.28-228.38,60.06-150.74,33.58-320.18-69.09-437C571.59-4.67,390.91-.73,366,.23Zm-15.2,53.82c6.91-1.38,13.82-2.07,20.72-2.76,2.76,0,4.84-.69,6.91-.69h30.39a102,102,0,0,1,14.5.69,342.68,342.68,0,0,1,76,12.42c2.07.69,3.45.69,5.53,1.38a155.43,155.43,0,0,1,16.57,5.52c2.76,1.38,5.53,2.07,8.29,3.45a355.5,355.5,0,0,1,117.41,73.82l4.83,4.83.69.69,2.76,2.76,2.08,2.07c1.38,1.38,2.76,3.45,4.14,4.83a129.08,129.08,0,0,1,12.8,11.31c29.65,29.9,38.09,67.71,40.79,90.58-21.87-10.76-83.55-40.78-119.89-53.59-3.87-1.36-7.54-2.59-7.54-2.59a557.47,557.47,0,0,0-64.29-17.42c-20-4.14-38-6.9-53.18-9C462,181,453.75,181,446.84,180.31c-15.19-.69-25.55-.69-31.77-.69-20.72.69-48.34,2.07-64.92,3.45C348.77,137.53,349.46,83,350.84,54.05ZM757,386.13a220.31,220.31,0,0,1-16.28,114.21,955.93,955.93,0,0,0-83.36-67c-20.19-14.45-40.42-27.51-50.33-33.64-52.49-32.43-151.94-41.4-197.52-34.5-13.12-25.53-53.87-107-58-157.32,16.58-.69,44.2-2.76,64.23-3.45A530,530,0,0,1,471,207.22c8.29,1.38,18,2.07,27.63,4.14,17.27,2.76,35.91,7.59,57.32,13.11,4,1,15.47,4.4,31.08,9.66,23.8,8,39,14.57,71.1,28.09,13.43,5.65,34.34,14.41,60.75,25.36A219.89,219.89,0,0,1,757,386.13ZM181.64,136.84v-8.28a346.11,346.11,0,0,1,143-69.68c-1.38,37.25-2.76,105.56.69,151.1,4.14,56.58,47.65,142.14,61.47,167.67C370.87,397,321.15,456.31,279,494.26c-20.72-33.12-76-124.2-87-181.47C181,251.38,181.64,176.86,181.64,136.84ZM52.49,401.11A350.78,350.78,0,0,1,145,163.75c4.15-4.14,7.6-8.28,11.74-12.42,0,42.78.7,109,11.75,165.6C181,381.1,241,479.08,260.37,510.13l-8.29,6.21c-49,32.43-122.93,58.65-147.79,66.93A343.62,343.62,0,0,1,52.49,401.11ZM118.1,605.35c31.08-10.35,98.76-35.19,147.79-67.62,49.73-33.12,127.77-127.65,143.66-147,31.77-6.21,107.74-1.38,159.53,18.63-12.43,25.53-47,87.63-71.13,118.68-27.63,35.88-82.88,84.18-134.68,117.3-40.74,26.22-111.19,49-138.81,58A360.72,360.72,0,0,1,118.1,605.35Zm614.67-82.8a141.47,141.47,0,0,1-7.6,17.94l-.69,1.38-.69.69c0,.69-.69,1.38-1.38,2.76l-.7,2.07-.69,2.07c0,.69-.69,1.38-1.38,2.76A350.35,350.35,0,0,1,403.33,750.93a344.35,344.35,0,0,1-148.49-33.12c34.54-11.73,87-31,120.87-53.12C431,629.5,487.59,580.51,517.29,541.87c24.17-31.74,60.08-93.15,73.89-123.51a2.41,2.41,0,0,1,1.39.69c49.72,31.05,129.14,93.15,139.5,101.43l.7,2.07Z"/><path id="Shape-2" data-name="Shape" d="M732.42,522.8Z"/><path id="Shape-3" data-name="Shape" d="M748.49,334.56h0c-.55-.54,0-.54,0-1.08Z"/><path id="Shape-4" data-name="Shape" class="cls-2" d="M748.49,333.48h0v0Z"/><path id="Shape-5" data-name="Shape" d="M732,522.8a.53.53,0,0,0,.54.54l-.54-.54Z"/></g></g></g></svg>