<svg width="60" height="60" viewBox="0 0 60 60" fill="none" xmlns="http://www.w3.org/2000/svg">
<g clip-path="url(#clip0)">
<path d="M27.4935 0.0263268C12.093 1.41213 0 14.2693 0 29.9237C0 46.5019 13.5401 60.0007 30.3101 60.0007C42.3514 60.0007 52.739 53.046 57.5969 42.9604C62.1189 31.7201 60.1292 19.0682 52.4031 10.3428C42.9457 -0.358618 29.3798 -0.0506621 27.4935 0.0263268ZM26.3566 4.02975C26.8734 3.9271 27.3902 3.87577 27.907 3.82444C28.1137 3.82444 28.2687 3.77312 28.4238 3.77312C28.5788 3.77312 28.7855 3.77312 28.9406 3.77312H28.9922H29.0439C29.2506 3.77312 29.509 3.77312 29.7674 3.77312C29.9225 3.77312 30.1292 3.77312 30.3359 3.77312H30.5943H30.646H30.6977C31.0594 3.77312 31.4212 3.77312 31.7829 3.82444C33.7468 3.9271 35.6848 4.23505 37.4935 4.74831C37.6486 4.79964 37.7519 4.79964 37.907 4.85096C38.3204 4.95361 38.7339 5.10759 39.1473 5.26157C39.354 5.36422 39.5607 5.41555 39.7674 5.5182C43.0491 6.75002 45.9948 8.59775 48.5788 11.0357L48.9406 11.395L48.9922 11.4463C49.0439 11.4977 49.1473 11.6003 49.199 11.6516L49.354 11.8056C49.4574 11.9083 49.5607 12.0623 49.6641 12.1649C50 12.4215 50.3101 12.7038 50.6202 13.0118C52.8424 15.2445 53.4884 18.0674 53.6951 19.7611C52.0413 18.9656 47.416 16.7072 44.677 15.7577C44.3928 15.6551 44.1085 15.5524 44.1085 15.5524C43.2041 15.2445 41.447 14.7055 39.2765 14.2436C37.7778 13.9356 36.4341 13.7303 35.2713 13.5764C34.6512 13.4737 34.031 13.4737 33.5142 13.4224C32.3773 13.3711 31.6021 13.3711 31.137 13.3711C29.5866 13.4224 27.4935 13.525 26.2532 13.6277C26.2015 10.2658 26.2532 6.18544 26.3566 4.02975ZM56.8992 28.8202C57.416 32.8492 56.2791 35.9801 55.6848 37.3403C54.2377 36.0571 52.1189 34.2607 49.4315 32.336C47.907 31.2581 46.3824 30.283 45.6589 29.821C41.7054 27.4087 34.2377 26.7415 30.8269 27.2547C29.845 25.3557 26.77 19.2735 26.4599 15.5268C27.7003 15.4754 29.7933 15.3214 31.292 15.2701C31.9121 15.2701 33.3592 15.2701 35.4522 15.4754C36.0723 15.5781 36.7959 15.6294 37.5194 15.7834C38.8114 15.9887 40.2067 16.348 41.8346 16.7586C42.1447 16.8356 42.9974 17.0922 44.1602 17.4771C45.9432 18.0674 47.0801 18.555 49.509 19.5815C50.5168 19.9921 52.093 20.6593 54.0827 21.4806C54.8837 22.6867 56.4341 25.2274 56.8992 28.8202ZM13.6434 10.2145C13.6434 10.0092 13.6434 9.80391 13.6434 9.59861C16.77 7.08364 20.4393 5.26157 24.3928 4.38903C24.2894 7.18629 24.186 12.2676 24.4444 15.6807C24.7545 19.9151 28.0362 26.2795 29.0698 28.2043C27.8811 29.6414 24.1344 34.0811 20.9819 36.904C19.4315 34.4403 15.2713 27.6397 14.4444 23.354C13.5917 18.7603 13.6434 13.1914 13.6434 10.2145ZM3.95349 29.9237C3.95349 23.3283 6.43411 17.0409 10.9044 12.2162C11.2145 11.9083 11.4729 11.6003 11.7829 11.2924C11.7829 14.4746 11.8346 19.4275 12.6615 23.6619C13.5917 28.4609 18.1137 35.7748 19.5607 38.0845C19.354 38.2385 19.1473 38.3924 18.9406 38.5464C15.2455 40.9587 9.71576 42.9348 7.82946 43.5507C5.34884 39.5729 3.95349 34.8766 3.95349 29.9237ZM8.86305 45.1675C11.1886 44.3976 16.2791 42.5498 19.9742 40.1119C23.7209 37.6482 29.5866 30.5909 30.7752 29.1538C33.1525 28.6918 38.863 29.0511 42.7649 30.5396C41.8346 32.4386 39.2248 37.0836 37.416 39.3933C35.3488 42.0622 31.1886 45.6807 27.2868 48.1444C24.2377 50.0948 18.9406 51.7885 16.8475 52.4814C13.6951 50.5823 11.0078 48.1187 8.86305 45.1675ZM55.0646 39.0084C54.9096 39.4703 54.7028 39.9322 54.4961 40.3428L54.4444 40.4455L54.3928 40.4968C54.3928 40.5481 54.3411 40.5995 54.2894 40.7021L54.2377 40.8561L54.186 41.0101C54.186 41.0614 54.1344 41.1127 54.0827 41.2154C51.9638 45.6037 48.6305 49.2992 44.522 51.9168C40.2584 54.5858 35.3488 56.0486 30.3101 56.0486C26.3049 56.0486 22.5323 55.176 19.1473 53.5849C21.7313 52.7124 25.6848 51.2752 28.2171 49.6072C32.3773 46.9895 36.615 43.3197 38.863 40.4455C40.6718 38.0845 43.385 33.4908 44.4186 31.2325C44.4703 31.2325 44.522 31.2838 44.522 31.2838C48.2687 33.5935 54.2377 38.2385 55.0129 38.8544C55.0646 39.0084 55.0646 39.0084 55.0646 39.0084C55.1163 39.0084 55.1163 39.0084 55.0646 39.0084Z" fill="white"/>
<path d="M56.2534 24.9701C56.2534 24.9187 56.2534 24.9187 56.2534 24.9701C56.2018 24.9187 56.2534 24.9187 56.2534 24.8931C56.2534 24.9187 56.2534 24.9187 56.2534 24.9701Z" fill="black"/>
<path d="M56.2534 24.8931C56.2534 24.8931 56.2018 24.9187 56.2534 24.8931C56.2534 24.9444 56.2534 24.9444 56.2534 24.9701C56.2534 24.9187 56.2534 24.9187 56.2534 24.8931Z" fill="white"/>
<path d="M55.0132 39.0077C55.0132 39.0077 55.0132 39.06 55.0659 39.06C55.0395 39.06 55.0395 39.06 55.0132 39.0077C55.0132 39.06 55.0132 39.06 55.0132 39.0077Z" fill="black"/>
</g>
<defs>
<clipPath id="clip0">
<rect width="60" height="60" fill="white"/>
</clipPath>
</defs>
</svg>
