<svg xmlns="http://www.w3.org/2000/svg" viewBox="0 0 1114.61 683"><defs><style>.cls-1{fill:#e26b13;}</style></defs><g id="Layer_2" data-name="Layer 2"><g id="Layer_1-2" data-name="Layer 1"><path class="cls-1" d="M466.4,443.58,381.72,248.5,731.09,131.89Z"/><rect class="cls-1" x="353.02" y="79.47" width="11.97" height="161.83" transform="translate(-32.05 119.35) rotate(-18.08)"/><path class="cls-1" d="M438.05,29.24,319.67,68.7,226.12,28.36Z"/><circle class="cls-1" cx="212.82" cy="455.74" r="212.82"/><circle class="cls-1" cx="901.79" cy="470.18" r="212.82"/><circle class="cls-1" cx="479.08" cy="503.43" r="46.11"/><rect class="cls-1" x="536.84" y="504.43" width="70.5" height="15.96"/><rect class="cls-1" x="604.23" y="529.42" width="22.17" height="22.17"/><rect class="cls-1" x="736.7" y="47.36" width="16.85" height="141.94" transform="translate(2.25 250.05) rotate(-19.08)"/><rect class="cls-1" x="792.09" y="178.07" width="16.85" height="93.25" transform="translate(-29.47 274) rotate(-19.08)"/><path class="cls-1" d="M727.89,39l-121-39,97,48Z"/><path class="cls-1" d="M669.89,38l-95.52,69.64L699.89,53Z"/></g></g></svg>