<svg width="60" height="37" viewBox="0 0 60 37" fill="none" xmlns="http://www.w3.org/2000/svg">
<g clip-path="url(#clip0)">
<path d="M25.1068 24.031C23.5888 20.5098 22.0654 16.9832 20.5474 13.4619C26.8187 11.3546 33.0846 9.25271 39.3559 7.14539C34.608 12.7739 29.8547 18.4025 25.1068 24.031Z" fill="black"/>
<path d="M18.2811 4.42176L17.667 4.62355L20.3705 12.9557L20.9846 12.7539L18.2811 4.42176Z" fill="black"/>
<path d="M23.5835 1.58185C21.4572 2.29693 19.3363 3.00659 17.21 3.72167C15.5304 2.99576 13.8509 2.26442 12.1714 1.53851C15.9772 1.55476 19.7777 1.56559 23.5835 1.58185Z" fill="black"/>
<path d="M11.4552 36.2145C17.7818 36.2145 22.9105 31.0533 22.9105 24.6865C22.9105 18.3198 17.7818 13.1586 11.4552 13.1586C5.12868 13.1586 0 18.3198 0 24.6865C0 31.0533 5.12868 36.2145 11.4552 36.2145Z" fill="black"/>
<path d="M48.5451 37C54.8716 37 60.0003 31.8387 60.0003 25.472C60.0003 19.1053 54.8716 13.9441 48.5451 13.9441C42.2185 13.9441 37.0898 19.1053 37.0898 25.472C37.0898 31.8387 42.2185 37 48.5451 37Z" fill="black"/>
<path d="M25.7902 29.7679C27.1608 29.7679 28.2718 28.6498 28.2718 27.2706C28.2718 25.8913 27.1608 24.7732 25.7902 24.7732C24.4196 24.7732 23.3086 25.8913 23.3086 27.2706C23.3086 28.6498 24.4196 29.7679 25.7902 29.7679Z" fill="black"/>
<path d="M32.6916 27.3247H28.8965V28.1915H32.6916V27.3247Z" fill="black"/>
<path d="M33.7199 28.6791H32.5249V29.8817H33.7199V28.6791Z" fill="black"/>
<path d="M39.2903 2.62877L38.4355 2.92628L40.9326 10.1914L41.7873 9.89386L39.2903 2.62877Z" fill="black"/>
<path d="M42.7009 9.63674L41.8462 9.93426L43.4863 14.706L44.341 14.4085L42.7009 9.63674Z" fill="black"/>
<path d="M39.1835 2.11274C37.0141 1.40849 34.8393 0.704246 32.6699 0C34.4087 0.866764 36.1528 1.73353 37.8915 2.60029C38.3222 2.43777 38.7528 2.27526 39.1835 2.11274Z" fill="black"/>
<path d="M36.0613 2.05856C34.3494 3.31537 32.6322 4.57218 30.9204 5.82899C33.1705 4.84304 35.4207 3.8571 37.6762 2.87115C37.1379 2.60029 36.5996 2.32943 36.0613 2.05856Z" fill="black"/>
</g>
<defs>
<clipPath id="clip0">
<rect width="60" height="37" fill="white"/>
</clipPath>
</defs>
</svg>
