<svg xmlns="http://www.w3.org/2000/svg" viewBox="0 0 649.14 369.45"><defs><style>.cls-1{fill:none;}.cls-1,.cls-2{stroke:#fff;stroke-miterlimit:10;}.cls-2{fill:#e26b13;}</style></defs><g id="Layer_2" data-name="Layer 2"><g id="Layer_1-2" data-name="Layer 1"><path class="cls-1" d="M19,13.28c-1.59,5.91-.64,8.32.55,9.41,1.8,1.66,4.32.48,6.74,2.58,1.92,1.66,1.55,3.46,2.66,5.47,3,5.4,11.33,2.64,14.05,6,6.55,8-24.59,45.46-19.31,50.52a18.58,18.58,0,0,1,2.55,1.87c2,2,4,5.45,3,7.68s-4.69,2.54-5.47,2.66c-5,.73-12.43,11.26-23.15,52l4,2.1a34.57,34.57,0,0,0-2.85,25.33S4,186.9,17,198.69c1.24,1.12,3.27,2.79,5.34,2.33a4.59,4.59,0,0,0,2.45-1.73c3.33-3.83,12.27.28,20.23-.88S59.75,191,62.41,184.85c1.74-4,2-8.67,2.13-12.55.28-6.33-.74-9.51,1.54-13.36a13.8,13.8,0,0,1,5.13-4.87c5-2.89,7.9-.88,13.26-2.06,10.33-2.26,13.53-12.8,19.09-11.11,2.49.76,3.1,3.26,5.92,3.15,2.15-.07,2.69-1.56,6-1.84,1.23-.1,3.59-.11,3.6-.11a5.09,5.09,0,0,1,3.14,2.68c.73,2.06-1,3.94-.13,5s3.32-.33,4.18.71-1.38,3-.94,5.58c.5,3,4,3.55,4.05,5.7s-3.74,2.62-5.13,4.87c-3.69,6,11,22.33,25.38,32.27,7.77,5.37,13,7.16,18.23,6.67a24.81,24.81,0,0,0,9.89-3.34c3.27-2.09,3.66-3.65,5.94-5.45,4.59-3.62,8.35-1.55,17.68-2.75,12.2-1.57,14.32-6.21,21.52-4.24,1.43.39,6.2,1.69,9.05,5.83,3.62,5.25.85,10.25,5.53,18.15,1.53,2.58,1.7,1.84,2.9,4.08,3.64,6.82.45,10.71,3.56,17.1.53,1.1,2.8,5.75,7.42,7,2.92.78,6.72.19,7.44-1.61s-2.08-3.21-2.42-6.86c-.24-2.58.91-4.43,1.76-6.16,1.21-2.45,1.86-6.48,3.18-14.52a125.31,125.31,0,0,0,1.56-22c-.09,23.23,4.45,34.38,9,40.24,2.51,3.27,8.08,8.86,8,16.42,0,2.68-.78,5.47.55,9.41s2.89,3.86,3.82,7.1c1.1,3.84-.8,4.88-1.31,12-.28,4-.55,8.67,2.3,11.87.43.48,2.13,2.39,3.94,2.1s2.07-2.3,3.27-2.32c2.25,0,2.85,7.1,5.21,7.34,1.91.19,4.39-4.18,5-8.47.49-3.35-.54-3.95-.79-8-.6-9.5,4.53-13.76,1.67-18.36-.76-1.23-2.13-2.54-2.08-4.65a5.81,5.81,0,0,1,1.29-3.37c1.73-2.34,6.47-17.27,16.41-54.6a50,50,0,0,1,12.16,17.12c3.28,7.8,1.52,9.65,5.3,19.55,4.53,11.84,7.88,11.37,8.9,19.43.5,3.9.23,8.09,2.64,14.08,1.17,2.91,1.84,3.4,2.66,5.47,1.41,3.52,2.27,9.11-.86,17.78,4.45,17.95,6.66,21.57,7.85,21.41,1.63-.21.77-7.4,2.28-26.15,1-12.65,3.18-31.39-1.18-39.64a12.2,12.2,0,0,1-1.5-3.84c-1-5.37,2.68-7.83,1.31-12-.12-.36-.05-.06-3.48-4.9-2.87-4-3.53-5.14-3.24-6.28.45-1.72,2.81-2.5,4.08-2.9,10.18-3.19,13.09-1.58,17.1-3.56,8.82-4.36,9.5-19.52,16-22.39a10.21,10.21,0,0,0,4.08-2.9c1.66-2,1-3.09,2.1-3.94,2.79-2.16,8.24,3.72,13.36,1.54,2.15-.91,2-2.27,3.26-2.32,4.61-.16,5.25,16.91,13.9,19.57,2.76.85,3.19-.74,8-.79,6-.08,14.74,2.26,19.39,8.3,6.25,8.11,3,20.08,7.85,21.41,1.79.49,4.1-.61,5.58.94a4.35,4.35,0,0,1,.92,3c.06,7.58-1,8.66-.5,11.39,1.06,5.87,7.64,10.37,9.51,11.65a15.65,15.65,0,0,1,2.55,1.87c3.41,3.26,2.88,6.72,4.16,9.31,3.27,6.61,16.87,4.58,34.15,10.08a26.37,26.37,0,0,1,5.34,2.34c2.63,1.51,7.88,4.55,9.74,10.25,1.19,3.67.49,6.91-.49,11.4a41.35,41.35,0,0,1-2.81,8.13c-2.54,5.87-3.8,8.8-6.89,11-1.93,1.38-2.93,1.32-4.08,2.9-1.87,2.59-2.13,6.84-.6,7.78,2.31,1.42,5.89-6.37,14.2-7.63,6-.91,8.93,2.4,12.21-.09a11.84,11.84,0,0,0,4.24-7.78c.07-.84,0-1.46.2-1.51.68-.16,1.42,7.61,6,15.36,4,6.76,7.5,7.76,8.45,13.63.24,1.49-.23,3.78,1.26,5.23s3.2,1.05,4.39,1.28c2.6.51,5.56,4.15,7.54,17.24a151.73,151.73,0,0,1-1.91-26.86c.26-13,2.18-19.27-1.67-28.26a34.91,34.91,0,0,0-9.27-13c-4-3.43-5.84-3.27-13.57-8.75-10.22-7.24-9.91-9.61-9.74-10.26a3.43,3.43,0,0,1,3.26-2.31c1.32.11,1.54,1.43,3.71,3.49,1.15,1.09,3.31,3.16,5.92,3.16,1.37,0,2-.57,3-.92,4.53-1.6,11,3,14.62,6.78,4.62,4.89,4.4,8.53,7.77,9.2,2.76.55,3.62-1.75,7.44-1.61,4.19.16,4.63,2.95,8.71,3.63,5.82,1,9.14-4,11.87-2.3s.31,7.69,2.76,9.08c3.12,1.75,8.41-7.08,15.36-6,2.32.36,3.91,1.83,7.08,4.78a59.16,59.16,0,0,1,10.66,13.28"/><circle class="cls-2" cx="20.09" cy="7" r="6.5"/><circle class="cls-2" cx="642.13" cy="323.16" r="6.5"/></g></g></svg>