<?xml version="1.0" encoding="utf-8"?>
<!-- Generator: Adobe Illustrator 24.2.3, SVG Export Plug-In . SVG Version: 6.00 Build 0)  -->
<svg version="1.1" id="Layer_1" xmlns="http://www.w3.org/2000/svg" xmlns:xlink="http://www.w3.org/1999/xlink" x="0px" y="0px"
	 viewBox="0 0 257 28" style="enable-background:new 0 0 257 28;" xml:space="preserve">
<style type="text/css">
	.st0{fill:#FFFFFF;}
</style>
<path d="M0.6,0.9V27h19.5c7.5,0,10.4-3.5,10.4-7.6c0-3.4-1.4-5.1-4-6.7c2.2-1.9,2.9-3.4,2.9-5.7c0-5-4.7-6.2-8.7-6.2L0.6,0.9z
	 M8.1,10.5V6.6h9.7C20.3,6.6,21,7,21,8.4s-0.8,2.1-3,2.1H8.1z M8.1,21.4v-5.6h10.3c2.9,0,3.8,1.3,3.8,2.8c0,1.8-1.6,2.8-3.8,2.8H8.1
	z M34.1,0.9V27h7.5V0.9H34.1z M45.2,0.9V27h7.5v-6.8l5.9-4.8L67.3,27h9.1L64.1,10.7l11.8-9.8h-8.8l-14.5,12v-12H45.2z M79,0.9V27
	h26.4v-5.5h-19V16h15.7v-5.6H86.5V6.5h19V0.9H79z M135.4,13.2c3-1.1,5.2-3.4,5.2-6.5c0-3.8-4.5-5.9-8.2-5.9c-3.5,0-7.9,2-7.9,6.2
	c0,1.6,0.5,3.1,1.2,4.4c-3.6,1.4-8.6,3.7-8.6,8.6c0,3.8,2.7,7,8.8,7c4,0,8.2-1.3,10.8-2.2l1.9,2.1h9.7l-5.4-5.8
	c1.2-1.1,2.5-2.2,3.7-4.2l-3.8-3.3c-0.9,1.6-1.6,2.4-3.4,3.8L135.4,13.2z M135,6.7c0,1-0.7,2-2.8,2.8c-0.6-0.9-1-1.8-1-2.5
	c0-1.2,1-1.9,2-1.9C134,5.2,135,5.5,135,6.7z M125.2,19c0-1.7,1.4-2.6,3.4-3.4l4.6,5.2C128.9,22.4,125.2,21.9,125.2,19z M179.2,0.9
	h-19.1V27h7.5v-9.7h6.8l7.3,9.7h9.4l-7.6-10.1c3.8-1.1,6.3-3.5,6.3-8.1C189.7,2.6,184.3,0.9,179.2,0.9L179.2,0.9z M167.5,11.8V6.3
	h9.3c1.9,0,5.5,0.1,5.5,2.7c0,2.5-3.5,2.8-5.5,2.8L167.5,11.8z M193.7,0.9v14.9c0,7.5,3.5,12,14.4,12c12.7,0,15.2-5.2,15.2-13V0.9
	h-7.4v14.6c0,4-0.4,6.8-7.3,6.8c-6.9,0-7.5-2.7-7.5-6.8V0.9H193.7z M226.9,0.9V27h7.5V10l13.6,17h8.7V0.9h-7.4v17.6l-14-17.6H226.9z
	"/>
<g>
	<path class="st0" d="M142.5,26.3c-1.2-1.2-2.5-2.4-3.7-3.5c0.5,0,1,0,1.5,0c1.2,1.2,2.5,2.4,3.7,3.5
		C143.5,26.3,143,26.3,142.5,26.3z"/>
	<path class="st0" d="M136.9,20.6c-1-0.9-2-1.9-3-2.8c0.5,0,1,0,1.5,0c1,0.9,2,1.9,3,2.8C137.9,20.6,137.4,20.6,136.9,20.6z"/>
	<path class="st0" d="M132,15.7c-0.3-0.3-0.7-0.6-1.1-1.1c-0.6-0.6-0.9-1.3-1.1-1.8c0.4,0,0.7,0,1.1,0c0.2,0.3,0.4,0.7,0.7,1.1
		c0.6,0.8,1.3,1.4,1.9,1.8C133,15.7,132.5,15.7,132,15.7z"/>
	<path class="st0" d="M128.4,10.4c-0.3-0.4-0.7-1.1-0.9-2c-0.2-0.7-0.1-1.4-0.1-1.8c0.4,0.1,0.8,0.2,1.1,0.3c0,0.4,0,0.9,0.1,1.4
		c0.2,1,0.6,1.7,0.9,2.2C129.2,10.4,128.8,10.4,128.4,10.4z"/>
	<path class="st0" d="M128.3,4.4c0.3-0.4,1-1.3,2.2-1.8c0.9-0.4,1.8-0.4,2.2-0.4c-0.1,0.4-0.2,0.7-0.2,1.1c-0.4,0-1,0.1-1.6,0.4
		c-0.8,0.3-1.2,0.8-1.5,1.1C129,4.6,128.7,4.5,128.3,4.4z"/>
	<path class="st0" d="M135.2,2.6c0.4,0.2,1.5,0.7,2.2,1.8c0.5,0.8,0.7,1.6,0.7,2c-0.4,0-0.8,0-1.1-0.1c-0.1-0.3-0.2-0.9-0.6-1.5
		c-0.5-0.7-1-1-1.3-1.2C135,3.3,135.1,2.9,135.2,2.6z"/>
	<path class="st0" d="M137.8,8.9c-0.2,0.4-0.7,1.4-1.9,2.1c-0.9,0.5-1.7,0.6-2.1,0.7c0.5-0.2,1.5-0.6,2.2-1.6c0.4-0.5,0.6-1,0.7-1.3
		C137,8.8,137.4,8.8,137.8,8.9z"/>
</g>
</svg>
