<svg width="257" height="28" viewBox="0 0 257 28" fill="none" xmlns="http://www.w3.org/2000/svg">
<path d="M0.59 0.869998V27H20.06C27.59 27 30.47 23.46 30.47 19.44C30.47 16.08 29.03 14.31 26.45 12.75C28.7 10.86 29.39 9.39 29.39 7.02C29.39 2.01 24.65 0.839999 20.66 0.839999L0.59 0.869998ZM8.06 10.47V6.6H17.81C20.27 6.6 21.05 7.02 21.05 8.4C21.05 9.78 20.27 10.47 18.02 10.47H8.06ZM8.06 21.39V15.75H18.35C21.23 15.75 22.1 17.04 22.1 18.54C22.13 20.37 20.51 21.39 18.35 21.39H8.06ZM34.0869 0.869998V27H41.5569V0.869998H34.0869ZM45.2009 0.869998V27H52.6709V20.16L58.5509 15.33L67.3409 27H76.4609L64.1009 10.71L75.9209 0.869998H67.1309L52.6709 12.84V0.869998H45.2009ZM78.9908 0.869998V27H105.421V21.54H86.4608V15.96H102.121V10.41H86.4608V6.48H105.421V0.869998H78.9908ZM135.398 13.2C138.368 12.09 140.648 9.78 140.648 6.72C140.648 2.94 136.118 0.839999 132.398 0.839999C128.858 0.839999 124.478 2.85 124.478 7.05C124.478 8.67 124.988 10.14 125.708 11.49C122.138 12.87 117.128 15.18 117.128 20.04C117.098 23.79 119.828 27.09 125.948 27.09C129.968 27.09 134.138 25.83 136.778 24.87L138.698 27H148.358L142.958 21.24C144.158 20.13 145.418 19.02 146.678 17.07L142.928 13.74C141.998 15.33 141.308 16.14 139.508 17.58L135.398 13.2ZM134.978 6.69C134.978 7.74 134.288 8.64 132.188 9.54C131.558 8.61 131.228 7.77 131.228 7.02C131.228 5.82 132.188 5.16 133.238 5.16C133.988 5.16 134.978 5.52 134.978 6.69ZM125.168 19.02C125.168 17.28 126.608 16.38 128.528 15.63L133.148 20.88C128.918 22.38 125.168 21.87 125.168 19.02ZM179.207 0.869998H160.097V27H167.567V17.34H174.407L181.667 27H191.087L183.497 16.86C187.307 15.81 189.767 13.41 189.767 8.79C189.737 2.61 184.277 0.869998 179.177 0.869998H179.207ZM167.537 11.76V6.33H176.837C178.727 6.33 182.387 6.45 182.387 9C182.387 11.52 178.907 11.79 176.927 11.79L167.537 11.76ZM193.653 0.869998V15.72C193.653 23.19 197.193 27.75 208.053 27.75C220.743 27.75 223.263 22.5 223.263 14.79V0.869998H215.853V15.45C215.853 19.44 215.433 22.29 208.593 22.29C201.723 22.26 201.123 19.62 201.123 15.45V0.869998H193.653ZM226.857 0.869998V27H234.327V9.96L247.917 27H256.617V0.869998H249.237V18.42L235.227 0.869998H226.857Z" fill="white"/>
</svg>
