<svg width="30" height="29" viewBox="0 0 30 29" fill="none" xmlns="http://www.w3.org/2000/svg">
<path d="M14.0489 1.50919C14.3483 0.587885 15.6517 0.587882 15.9511 1.5092L18.4535 9.21082C18.7212 10.0349 19.4891 10.5928 20.3556 10.5928H28.4536C29.4223 10.5928 29.8251 11.8324 29.0413 12.4018L22.4899 17.1617C21.789 17.671 21.4956 18.5737 21.7634 19.3977L24.2658 27.0994C24.5652 28.0207 23.5107 28.7868 22.727 28.2174L16.1756 23.4575C15.4746 22.9482 14.5254 22.9482 13.8244 23.4575L7.27303 28.2174C6.48932 28.7868 5.43484 28.0207 5.73419 27.0994L8.2366 19.3977C8.50435 18.5737 8.21103 17.671 7.51006 17.1617L0.958662 12.4018C0.174952 11.8324 0.577724 10.5928 1.54645 10.5928H9.64442C10.5109 10.5928 11.2788 10.0349 11.5465 9.21082L14.0489 1.50919Z" stroke="white"/>
</svg>
