<svg width="26" height="44" viewBox="0 0 26 44" fill="none" xmlns="http://www.w3.org/2000/svg">
<path d="M19.4459 8.43623H23.0551C23.2466 8.43623 23.4017 8.2847 23.4017 8.09777V2.27508C23.4017 2.10529 23.2738 1.962 23.101 1.944C22.1723 1.84731 20.0566 1.69238 17.6384 1.69238C11.9347 1.69238 8.0275 5.055 8.0275 11.2353V16.5847C8.0275 16.7716 7.8723 16.9232 7.68084 16.9232H2.08C1.88854 16.9232 1.73334 17.0746 1.73334 17.2616V23.8041C1.73334 23.9911 1.88854 24.1425 2.08 24.1425H7.68084C7.8723 24.1425 8.0275 24.294 8.0275 24.481V41.9693C8.0275 42.1563 8.18271 42.3078 8.37417 42.3078H15.3978C15.5892 42.3078 15.7444 42.1563 15.7444 41.9693V24.4827C15.7444 24.2957 15.8997 24.1442 16.0911 24.1442H21.4795C21.6537 24.1442 21.8008 24.018 21.8232 23.8493L22.6921 17.3068C22.719 17.1044 22.5574 16.9248 22.3482 16.9248H16.0893C15.8979 16.9248 15.7426 16.7733 15.7426 16.5864V11.9512C15.7445 9.86454 16.3439 8.43623 19.4459 8.43623Z" stroke="#0F0000" stroke-width="2"/>
</svg>
