<svg width="26" height="45" viewBox="0 0 26 45" fill="none" xmlns="http://www.w3.org/2000/svg">
<g clip-path="url(#clip0)">
<path d="M19.446 8.48213H23.0551C23.2467 8.48213 23.4018 8.3306 23.4018 8.14367V2.32098C23.4018 2.15119 23.2739 2.0079 23.1011 1.98989C22.1723 1.89321 20.0566 1.73828 17.6385 1.73828C11.9348 1.73828 8.02756 5.1009 8.02756 11.2812V16.6306C8.02756 16.8175 7.87236 16.969 7.6809 16.969H2.08007C1.8886 16.969 1.7334 17.1205 1.7334 17.3075V23.85C1.7334 24.037 1.8886 24.1884 2.08007 24.1884H7.6809C7.87236 24.1884 8.02756 24.3399 8.02756 24.5269V42.0152C8.02756 42.2022 8.18277 42.3537 8.37423 42.3537H15.3979C15.5893 42.3537 15.7445 42.2022 15.7445 42.0152V24.5286C15.7445 24.3416 15.8997 24.1901 16.0912 24.1901H21.4795C21.6537 24.1901 21.8009 24.0639 21.8232 23.8952L22.6922 17.3527C22.719 17.1503 22.5575 16.9707 22.3483 16.9707H16.0894C15.8979 16.9707 15.7427 16.8192 15.7427 16.6323V11.997C15.7445 9.91043 16.344 8.48213 19.446 8.48213Z" stroke="white" stroke-width="2"/>
</g>
<defs>
<clipPath id="clip0">
<rect width="26" height="44" fill="white" transform="translate(0 0.0458984)"/>
</clipPath>
</defs>
</svg>
