<svg width="30" height="29" viewBox="0 0 30 29" fill="none" xmlns="http://www.w3.org/2000/svg">
<path d="M14.0489 1.54508C14.3483 0.623774 15.6517 0.62377 15.9511 1.54509L18.4535 9.24671C18.7212 10.0708 19.4891 10.6287 20.3556 10.6287H28.4536C29.4223 10.6287 29.8251 11.8683 29.0413 12.4377L22.4899 17.1976C21.789 17.7068 21.4956 18.6096 21.7634 19.4336L24.2658 27.1353C24.5652 28.0566 23.5107 28.8227 22.727 28.2533L16.1756 23.4934C15.4746 22.9841 14.5254 22.9841 13.8244 23.4934L7.27303 28.2533C6.48932 28.8227 5.43484 28.0566 5.73419 27.1353L8.2366 19.4336C8.50435 18.6096 8.21103 17.7069 7.51006 17.1976L0.958662 12.4377C0.174952 11.8683 0.577724 10.6287 1.54645 10.6287H9.64442C10.5109 10.6287 11.2788 10.0708 11.5465 9.24671L14.0489 1.54508Z" fill="#E26B13" stroke="white"/>
</svg>
