<svg width="38" height="39" viewBox="0 0 38 39" fill="none" xmlns="http://www.w3.org/2000/svg">
<path d="M25.7633 23.3978L28.2658 31.0994C28.5651 32.0207 27.5106 32.7868 26.7269 32.2174L20.1755 27.4576C19.4745 26.9483 18.5254 26.9483 17.8244 27.4576L11.273 32.2174C10.4893 32.7868 9.43479 32.0207 9.73414 31.0994L12.2366 23.3978C12.3704 22.9857 12.7544 22.7068 13.1876 22.7068H24.8123C25.2455 22.7068 25.6295 22.9857 25.7633 23.3978Z" fill="#E26B13" stroke="#E26B13"/>
<path d="M18.0489 5.50919C18.3483 4.58789 19.6517 4.58788 19.9511 5.5092L22.4535 13.2108C22.7212 14.0349 23.4891 14.5928 24.3556 14.5928H32.4536C33.4223 14.5928 33.8251 15.8324 33.0413 16.4018L26.4899 21.1617C25.789 21.671 25.4956 22.5737 25.7634 23.3977L28.2658 31.0994C28.5652 32.0207 27.5107 32.7868 26.727 32.2174L20.1756 27.4575C19.4746 26.9482 18.5254 26.9482 17.8244 27.4575L11.273 32.2174C10.4893 32.7868 9.43484 32.0207 9.73419 31.0994L12.2366 23.3977C12.5044 22.5737 12.211 21.671 11.5101 21.1617L4.95866 16.4018C4.17495 15.8324 4.57772 14.5928 5.54645 14.5928H13.6444C14.5109 14.5928 15.2788 14.0349 15.5465 13.2108L18.0489 5.50919Z" stroke="white"/>
</svg>
