<svg width="44" height="43" viewBox="0 0 44 43" fill="none" xmlns="http://www.w3.org/2000/svg">
<g clip-path="url(#clip0)">
<path d="M43.0381 12.7402C42.9391 10.5978 42.5755 9.12497 42.0547 7.84873C41.5176 6.49403 40.6911 5.28115 39.6083 4.2729C38.5503 3.24894 37.2692 2.45329 35.8643 1.94933C34.5174 1.45304 32.9799 1.10659 30.732 1.01213C28.4672 0.909678 27.7483 0.885986 22.0041 0.885986C16.2601 0.885986 15.5411 0.909678 13.2848 1.00413C11.0368 1.09859 9.49133 1.44534 8.15249 1.94131C6.73068 2.45329 5.45803 3.24094 4.40007 4.2729C3.32564 5.28115 2.49108 6.50203 1.96195 7.84104C1.44119 9.12498 1.07767 10.5898 0.978559 12.7322C0.87105 14.8905 0.846191 15.5757 0.846191 21.0499C0.846191 26.5241 0.87105 27.2092 0.970163 29.3596C1.06928 31.502 1.43312 32.9748 1.95387 34.2511C2.49108 35.6059 3.32564 36.8187 4.40007 37.827C5.45803 38.851 6.73908 39.6466 8.1441 40.1506C9.49133 40.6469 11.0284 40.9933 13.2767 41.0877C15.5327 41.1825 16.252 41.2058 21.9961 41.2058C27.7402 41.2058 28.4591 41.1825 30.7154 41.0877C32.9635 40.9933 34.5089 40.6469 35.8477 40.1506C38.6911 39.103 40.939 36.9605 42.0383 34.2511C42.5587 32.9673 42.9225 31.502 43.0217 29.3596C43.1209 27.2092 43.1456 26.5241 43.1456 21.0499C43.1456 15.5757 43.1373 14.8905 43.0381 12.7402ZM39.7693 29.3596C39.6782 31.3288 39.5175 32.097 39.2282 32.806C38.5173 34.5626 36.5354 36.3284 34.6923 37.006C33.9486 37.2817 32.7736 37.7595 30.7154 37.846C28.4839 37.9407 27.6449 37.846 22 37.846C16.3551 37.846 15.5001 37.9407 13.2767 37.846C11.2105 37.7595 10.0516 37.2817 9.30773 37.006C8.39053 36.6829 7.44692 35.9955 6.76927 35.326C6.06676 34.6721 5.41595 33.6801 5.07696 32.806C4.78769 32.097 4.32153 31.407 4.23081 29.446C4.13137 27.3193 4.23081 26.4257 4.23081 21.046C4.23081 15.6663 4.13137 15.6047 4.23081 13.486C4.32153 11.5169 4.78769 9.99488 5.07696 9.28599C5.41595 8.41156 6.05836 7.41211 6.76927 6.76599C7.45499 6.09647 8.39021 5.40875 9.30773 5.08599C10.6159 4.62582 12.6923 4.21907 14.3847 4.24599C16.6162 4.15154 16.3554 4.24599 22 4.24599C27.6534 4.24599 25.6998 4.15154 27.9231 4.24599C29.9893 4.33276 32.1539 4.24599 32.1539 4.24599C32.1539 4.24599 35.0181 4.55754 36.3847 5.92599C37.7512 7.29443 38.5841 8.41156 38.9231 9.28599C39.2123 9.99488 39.6782 10.6845 39.7693 12.646C39.8684 14.7726 39.7693 15.6663 39.7693 21.046C39.7693 26.4257 39.8684 27.2329 39.7693 29.3596Z" fill="white"/>
<path d="M22.8499 11.5334C16.8499 11.5334 11.9817 16.1726 11.9817 21.8912C11.9817 27.6096 16.8499 32.2487 22.8499 32.2487C28.8503 32.2487 33.7182 27.6096 33.7182 21.8912C33.7182 16.1726 28.8503 11.5334 22.8499 11.5334ZM22.8462 29.4458C18.9537 29.4458 15.2308 25.5957 15.2308 21.8858C15.2308 18.1758 18.9574 14.3258 22.8499 14.3258C26.7429 14.3258 30.4616 18.1758 30.4616 21.8858C30.4616 25.5957 26.739 29.4458 22.8462 29.4458Z" fill="white"/>
<path d="M36.6899 9.44319C36.6899 10.7785 35.5538 11.8612 34.1523 11.8612C32.7512 11.8612 31.615 10.7785 31.615 9.44319C31.615 8.10755 32.7512 7.02515 34.1523 7.02515C35.5538 7.02515 36.6899 8.10755 36.6899 9.44319Z" fill="white"/>
</g>
<defs>
<clipPath id="clip0">
<rect width="44" height="42" fill="white" transform="translate(0 0.0458984)"/>
</clipPath>
</defs>
</svg>
