<svg width="44" height="42" viewBox="0 0 44 42" fill="none" xmlns="http://www.w3.org/2000/svg">
<path d="M43.0381 12.694C42.9391 10.5517 42.5754 9.07883 42.0547 7.80259C41.5176 6.44788 40.691 5.23501 39.6083 4.22676C38.5503 3.2028 37.2692 2.40715 35.8642 1.90318C34.5173 1.40689 32.9799 1.06045 30.732 0.965992C28.4672 0.863535 27.7483 0.839844 22.0041 0.839844C16.2601 0.839844 15.5411 0.863535 13.2847 0.957991C11.0368 1.05245 9.4913 1.3992 8.15246 1.89517C6.73065 2.40715 5.458 3.1948 4.40004 4.22676C3.32561 5.23501 2.49105 6.45588 1.96192 7.79489C1.44116 9.07883 1.07764 10.5437 0.978528 12.686C0.871019 14.8444 0.846161 15.5296 0.846161 21.0037C0.846161 26.478 0.871019 27.1631 0.970133 29.3135C1.06925 31.4558 1.43309 32.9287 1.95384 34.205C2.49105 35.5597 3.32561 36.7725 4.40004 37.7809C5.458 38.8048 6.73905 39.6005 8.14407 40.1045C9.4913 40.6007 11.0284 40.9472 13.2767 41.0416C15.5327 41.1363 16.252 41.1597 21.9961 41.1597C27.7401 41.1597 28.459 41.1363 30.7154 41.0416C32.9635 40.9472 34.5089 40.6007 35.8477 40.1045C38.6911 39.0568 40.939 36.9143 42.0383 34.205C42.5587 32.9211 42.9225 31.4558 43.0217 29.3135C43.1209 27.1631 43.1456 26.478 43.1456 21.0037C43.1456 15.5296 43.1373 14.8444 43.0381 12.694ZM39.7692 29.3135C39.6782 31.2826 39.5174 32.0509 39.2282 32.7598C38.5173 34.5164 36.5354 36.2823 34.6923 36.9598C33.9485 37.2355 32.7736 37.7133 30.7154 37.7998C28.4839 37.8946 27.6449 37.7998 22 37.7998C16.3551 37.7998 15.5001 37.8946 13.2767 37.7998C11.2105 37.7133 10.0515 37.2355 9.3077 36.9598C8.3905 36.6368 7.44689 35.9493 6.76924 35.2798C6.06673 34.626 5.41592 33.6339 5.07693 32.7598C4.78766 32.0509 4.3215 31.3609 4.23078 29.3998C4.13134 27.2731 4.23078 26.3795 4.23078 20.9998C4.23078 15.6201 4.13134 15.5585 4.23078 13.4398C4.3215 11.4707 4.78766 9.94874 5.07693 9.23984C5.41592 8.36542 6.05833 7.36597 6.76924 6.71984C7.45496 6.05033 8.39018 5.36261 9.3077 5.03984C10.6159 4.57967 12.6923 4.17293 14.3846 4.19984C16.6161 4.10539 16.3554 4.19984 22 4.19984C27.6533 4.19984 25.6997 4.10539 27.9231 4.19984C29.9892 4.28662 32.1539 4.19984 32.1539 4.19984C32.1539 4.19984 35.0181 4.5114 36.3846 5.87984C37.7512 7.24829 38.5841 8.36542 38.9231 9.23984C39.2123 9.94874 39.6782 10.6384 39.7692 12.5998C39.8684 14.7265 39.7692 15.6201 39.7692 20.9998C39.7692 26.3795 39.8684 27.1868 39.7692 29.3135Z" fill="#0F0000"/>
<path d="M22.8499 11.4878C16.8499 11.4878 11.9817 16.1269 11.9817 21.8455C11.9817 27.5639 16.8499 32.203 22.8499 32.203C28.8503 32.203 33.7182 27.5639 33.7182 21.8455C33.7182 16.1269 28.8503 11.4878 22.8499 11.4878ZM22.8462 29.4001C18.9537 29.4001 15.2308 25.5501 15.2308 21.8401C15.2308 18.1302 18.9574 14.2801 22.8499 14.2801C26.7429 14.2801 30.4615 18.1302 30.4615 21.8401C30.4615 25.5501 26.739 29.4001 22.8462 29.4001Z" fill="#0F0000"/>
<path d="M36.6899 9.39704C36.6899 10.7324 35.5539 11.8151 34.1523 11.8151C32.7513 11.8151 31.615 10.7324 31.615 9.39704C31.615 8.06141 32.7513 6.979 34.1523 6.979C35.5539 6.979 36.6899 8.06141 36.6899 9.39704Z" fill="#0F0000"/>
</svg>
