<svg width="1152" height="1796" viewBox="0 0 1152 1796" fill="none" xmlns="http://www.w3.org/2000/svg">
<path d="M1150.5 0V131.045C1150.5 184.45 1129.14 235.637 1091.18 273.203L1044.35 319.545C1019.23 344.404 987.975 362.163 953.761 371.014L876.019 391.125C813.278 407.356 746.561 392.18 697.014 350.407L562.5 237V237C523.791 209.383 469.613 233.002 463.502 280.159L455.856 339.154C448.982 392.199 401.073 430.093 347.871 424.567L261.022 415.545C197.698 408.968 135.343 434.855 95.2963 484.346L16.4905 581.738C6.23926 594.407 1.35164 610.584 2.87281 626.81V626.81C7.57308 676.946 66.6675 701.148 105.185 668.712L147 633.5" stroke="black" stroke-width="2"/>
<path d="M200 586L203.763 582.993C269.538 530.434 354.372 507.934 437.549 520.988L557.886 539.873C573.272 542.287 588.823 543.5 604.397 543.5H740.624C780.152 543.5 819.289 551.311 855.788 566.485L884.477 578.412C916.948 591.911 945.409 613.521 967.135 641.172L974.257 650.236C994.63 676.166 1006.88 707.539 1009.48 740.413L1011.16 761.661C1012.36 776.952 1009.53 792.291 1002.95 806.144V806.144C991.03 831.212 967.931 849.145 940.691 854.476L799.922 882.025C783.019 885.333 766.502 890.374 750.632 897.068L736.563 903.003C673.78 929.486 626.841 983.604 609.5 1049.5V1049.5M597 1121L576.489 1174.53C563.015 1209.69 557.923 1247.51 561.616 1284.99V1284.99C570.72 1377.35 631.734 1456.53 719.115 1487.82C731.837 1492.38 744.685 1496.95 757.32 1501.42C808.67 1519.59 852.618 1554.44 881.114 1600.86L893.098 1620.38C897.011 1626.76 899.969 1633.68 901.875 1640.91V1640.91C911.453 1677.26 893.203 1715.18 858.821 1730.37L792.801 1759.53C765.473 1771.61 735.325 1775.84 705.728 1771.77L532.931 1747.98C513.718 1745.34 494.91 1740.31 476.938 1733.02V1733.02C405.891 1704.2 325.224 1712.05 261.073 1754.04L198.5 1795" stroke="black" stroke-width="2"/>
</svg>
