<svg xmlns="http://www.w3.org/2000/svg" viewBox="0 0 552.79 75.95"><defs><style>.cls-1{font-size:65.3px;font-family:OPTIVenus-BoldExtended, OPTIVenus;font-weight:700;}.cls-2{letter-spacing:-0.1em;}.cls-3{letter-spacing:0em;}.cls-4{fill:#fff;}</style></defs><g id="Layer_2" data-name="Layer 2"><g id="Layer_1-2" data-name="Layer 1"><text class="cls-1" transform="translate(0 56.94)">BIKE <tspan class="cls-2" x="248.67" y="0" xml:space="preserve">&amp;  </tspan><tspan class="cls-3" x="337.68" y="0">RUN</tspan></text><path class="cls-4" d="M305.82,54.72l-7.45-7.45h3l7.45,7.45Z"/><path class="cls-4" d="M294.64,42.79l-6-6h3q3,3,6,6Z"/><path class="cls-4" d="M285,32.36a15.21,15.21,0,0,1-2.24-2.24,15.69,15.69,0,0,1-2.24-3.73h2.24a18.87,18.87,0,0,0,1.49,2.24,20.42,20.42,0,0,0,3.73,3.73Z"/><path class="cls-4" d="M277.76,21.14a12.37,12.37,0,0,1-1.93-8.09l2.26.65a14,14,0,0,0,.15,3A13.76,13.76,0,0,0,280,21.42Z"/><path class="cls-4" d="M277.49,8.5A10.11,10.11,0,0,1,282,4.77,10.22,10.22,0,0,1,286.44,4c-.17.74-.33,1.48-.5,2.22a8.66,8.66,0,0,0-3.23.77,8.53,8.53,0,0,0-3,2.23Z"/><path class="cls-4" d="M291.2,4.69a10.11,10.11,0,0,1,4.4,3.81,9.93,9.93,0,0,1,1.46,4.29l-2.27-.12a8.5,8.5,0,0,0-1.27-3.07A8.71,8.71,0,0,0,290.83,7C291,6.24,291.07,5.47,291.2,4.69Z"/><path class="cls-4" d="M296.45,18a9.94,9.94,0,0,1-8.11,5.87,10,10,0,0,0,4.43-3.46,9.8,9.8,0,0,0,1.35-2.78Z"/></g></g></svg>