<?xml version="1.0" encoding="utf-8"?>
<!-- Generator: Adobe Illustrator 24.2.3, SVG Export Plug-In . SVG Version: 6.00 Build 0)  -->
<svg version="1.1" id="Layer_1" xmlns="http://www.w3.org/2000/svg" xmlns:xlink="http://www.w3.org/1999/xlink" x="0px" y="0px"
	 viewBox="0 0 552.8 75.9" style="enable-background:new 0 0 552.8 75.9;" xml:space="preserve">
<style type="text/css">
	.st0{fill:#FFFFFF;}
	.st1{font-family:'OPTIVenus-BoldExtended';}
	.st2{font-size:65.3px;}
	.st3{letter-spacing:-6;}
</style>
<g id="Layer_2_1_">
	<g id="Layer_1-2">
		<text transform="matrix(1 0 0 1 5.3627 62.3027)" class="st0 st1 st2">BIKE </text>
		<text transform="matrix(1 0 0 1 254.0327 62.3027)" class="st0 st1 st2 st3">&amp;  </text>
		<text transform="matrix(1 0 0 1 343.0427 62.3027)" class="st0 st1 st2">RUN</text>
		<path d="M311.2,60.1l-7.5-7.5h3l7.5,7.5H311.2z"/>
		<path d="M300,48.2l-6-6h3c2,2,4,4,6,6H300z"/>
		<path d="M290.4,37.7c-0.8-0.7-1.6-1.4-2.2-2.2c-0.9-1.1-1.7-2.4-2.2-3.7h2.2c0.4,0.8,0.9,1.5,1.5,2.2c1.1,1.4,2.3,2.7,3.7,3.7
			H290.4z"/>
		<path d="M283.1,26.5c-1.6-2.4-2.2-5.3-1.9-8.1l2.3,0.6c-0.1,1,0,2,0.1,3c0.3,1.7,0.9,3.3,1.8,4.7L283.1,26.5z"/>
		<path d="M282.9,13.9c1.1-1.7,2.7-3,4.5-3.7c1.4-0.6,2.9-0.8,4.4-0.8c-0.2,0.7-0.3,1.5-0.5,2.2c-1.1,0-2.2,0.3-3.2,0.8
			c-1.2,0.5-2.2,1.3-3,2.2L282.9,13.9z"/>
		<path d="M296.6,10.1c1.8,0.8,3.3,2.1,4.4,3.8c0.8,1.3,1.3,2.8,1.5,4.3l-2.3-0.1c-0.2-1.1-0.6-2.1-1.3-3.1
			c-0.7-1.1-1.6-1.9-2.7-2.6C296.4,11.6,296.4,10.8,296.6,10.1z"/>
		<path d="M301.8,23.4c-1.4,3.3-4.5,5.5-8.1,5.9c1.8-0.7,3.3-1.9,4.4-3.5c0.6-0.8,1-1.8,1.4-2.8L301.8,23.4z"/>
	</g>
</g>
</svg>
