<svg xmlns="http://www.w3.org/2000/svg" viewBox="0 0 1038.93 667.46"><defs><style>.cls-1{fill:none;}.cls-1,.cls-2{stroke:#fff;stroke-miterlimit:10;}.cls-2{fill:#e26b13;}</style></defs><g id="Layer_2" data-name="Layer 2"><g id="Layer_1-2" data-name="Layer 1"><path class="cls-1" d="M7.46,16.18C7.76,13.81,9.24,4,16,1.18c2.45-1,4.8-.82,9.49.2,12.27,2.68,17.62,5.89,24.82,7.8,5,1.32,10.28,1.24,20.85,1.07C89,10,92.93,7.11,103.12,10c5.28,1.49,5.39,2.59,12.24,4.37S127.73,16.51,134.6,17c10.45.7,11.32-.12,17.69,1,4.24.75,7.33,1.76,13.52,3.77,9.66,3.13,10.12,4.08,16.95,6.05,9.58,2.75,9.61,1.16,15.74,3.49,4.66,1.78,8.62,4.57,16.55,10.16,6.71,4.73,8.43,6.56,13.72,9.15a37.61,37.61,0,0,0,10.36,3.7c6.34,1.14,7.35-.65,12.65.26,2.75.48,2.79,1,14.4,7.27,8.93,4.81,10.19,5.18,12.17,7.53,2.85,3.36,2.45,5.18,5.52,8.34a22.24,22.24,0,0,0,9.69,5.58c7.48,2.48,16.83,10.13,35.52,25.42,7.43,6.09,16.07,13.65,23,18.84,5.33,4,5.68,3.59,8.41,6.18s4,4.48,5.92,4.24,2.12-2.32,4.51-3.7c2.72-1.57,5.79-.84,7.6-.47,12.51,2.53,18.56-1.57,32.83,3.22a103.38,103.38,0,0,1,11,5c14.39,7,21.72,12,27.52,15.13,14.54,7.94,19.27,4.71,45.61,12,13.08,3.64,22,7.23,34.84,12.44,58,23.47,53.64,37.89,87.92,45.19,16.3,3.48,35.71,4.15,42.65,17.35,2.41,4.58,1.58,7.35,5.72,13.73,5.59,8.58,11.28,10,17.29,20,2.22,3.69,1.11,2.94,4.24,9,7.41,14.22,11.85,15,14.06,23.07,2.42,8.78-2.54,9-.06,18,2.62,9.6,8.74,11.31,10.29,21.72.8,5.32-.63,6,.74,9.82,2.68,7.46,9,7.27,13.32,13.25,6.2,8.61-2.25,15.4,2.56,28.53,3,8.05,8.88,13,17.29,20,7,5.81,10.48,8.72,15.61,9.82,7.3,1.57,12.6-.95,18,3.23.51.4,4,3.12,3.36,5.45-.49,1.79-3.18,2.5-4.17,2.76-5,1.3-7.94-1.5-9.48-.21-.9.76-1.39,3,2.29,11.44,3.8,8.71,5.69,13.07,9.75,17.29,10.19,10.57,19.49,5.83,26.24,15.73,2.06,3,.6,2.61,5.72,13.73,4.89,10.62,7.07,12.86,9.82,14.12.7.32,5.8,2.57,10.43.54,3.32-1.46,4.14-4.13,6.72-4s4.45,3.06,5,3.9c1.92,3,.75,4.65,2.36,8.27a13,13,0,0,0,5.24,6.12c2.66,1.52,7.1,2.57,10.43.54,2.44-1.49,3.28-4.65,5-11,1.36-5.07,2-7.61,1.48-10.09-1.41-6.25-7.7-8.86-7.07-10s6.85-.17,11.3,4,5.61,10.28,7.2,18.49c.31,1.58,1.49,7.93,1.42,7.94s-1.69-15.85.73-19.91a3.47,3.47,0,0,1,1.62-1.55c1.78-.7,3.43,1,4.1.41s-.08-2.93-1.48-4.78c-2.16-2.86-5.1-3.44-5-3.9.22-.79,8.5,1.73,18,.06,4.22-.73,5.69-1.77,6.39-3,.88-1.58.26-3,1.41-6.93a14.48,14.48,0,0,1,1-2.83c.17-.32,2.62-4.9,7.4-5.85,2.41-.48,3.3.38,4.44-.54,1.79-1.45,1.24-4.93,1.08-6-.69-4.31-3.33-6.66-2.7-7.33s3.24,1,3.77,1.35c4.47,2.81,4.55,5.68,8.07,7.13,1.88.77,1.8-.07,5,.74,4.61,1.14,6.85,3.35,7.53,2.69.86-.83-2.8-4.14-1.75-7,.93-2.5,5.21-4,7.34-2.69,1,.63.92,1.53,2.42,5.11s2.24,5.32,3.36,5.45c1.56.18,3.8-2.47,3.9-5,.08-1.81-1-2.63-.54-4.44.25-1,1-2.39,1.95-2.49,1.33-.13,2.28,2.31,4.31,5.79,2.85,4.86,5.33,9.09,8.34,9.35,2,.16,3-1.47,5.45-3.37,4.58-3.6,12.46-6.9,18.77-5,7.62,2.32,12.44,12.1,10.43,15.4-.9,1.49-3.19,1.69-3.23,3.1,0,1.07,1.26,1.73,3.09,3.23,0,0,.26.21,4.64,4.84,6.63,7,15.35,27.38,18.17,38.34a13.34,13.34,0,0,1,.54,4.44c-.27,4.26-2.67,5.8-3.36,9.42-.58,3,.45,5.47,1.41,7.94,2,5.09,8.17,21,8.75,35,.23,5.65.38,11-3.16,14.8s-6.92,2-11.5,5.45c-6.8,5.07-8.29,15.6-7.13,22.94a28.5,28.5,0,0,0,8.21,15.67"/><circle class="cls-2" cx="7" cy="22.03" r="6.5"/><circle class="cls-2" cx="1027.86" cy="660.46" r="6.5"/></g></g></svg>