<svg width="794" height="621" viewBox="0 0 794 621" fill="none" xmlns="http://www.w3.org/2000/svg">
<g opacity="0.7">
<g clip-path="url(#clip0)">
<path d="M989.698 1108.58C995.48 1107.29 1000 1108.33 1002.37 1105.07C1004.46 1102.15 1002.35 1099.16 1004.97 1096.22C1006.15 1094.93 1008.14 1094.25 1012.27 1092.94C1017.35 1091.31 1017.37 1091.85 1019.06 1090.98C1023.14 1088.82 1022.33 1085.56 1026.63 1080.99C1027.95 1079.52 1030.61 1077.89 1035.84 1074.66C1042.6 1070.41 1045.42 1069.36 1045.56 1067C1045.71 1064.41 1042.41 1062.93 1043.09 1061.52C1043.79 1059.9 1048.09 1061.91 1053.45 1060.16C1054.76 1059.67 1059.07 1058.28 1060.83 1054.64C1062.3 1051.57 1060.64 1049.58 1062.52 1046.21C1063.54 1044.32 1065.01 1043.22 1066.26 1042.33C1070.97 1038.9 1073.67 1040.53 1076.29 1037.82C1078.53 1035.49 1078.77 1031.88 1078.89 1028.97C1079.13 1024.15 1077.57 1022.88 1078.75 1021.36C1080.79 1018.58 1086.06 1022.24 1090.93 1019.17C1093.73 1017.36 1095.85 1013.78 1095.76 1010.42C1095.64 1006.74 1092.93 1005.33 1093.8 1003.62C1094.78 1001.65 1098.78 1003.47 1103.74 1001.34C1104.93 1000.81 1109.72 998.544 1111.22 993.592C1112.46 989.525 1110.98 985.257 1110.31 984.245L1110.26 984.154C1109.95 982.977 1116.49 981.902 1119.48 977.816C1122.13 974.21 1119.42 971.593 1122.17 966.737C1123.76 963.937 1124.81 964.562 1128.23 960.719C1130.48 958.17 1134.61 953.684 1135.48 947.588C1136.27 942.517 1134.15 940.73 1135.85 938.651C1138.3 935.573 1143.4 938.87 1147.61 935.551C1151.68 932.405 1151.64 925.735 1151.62 924.973C1151.62 920.81 1149.82 919.976 1150.58 917.769C1152.19 913.314 1160.06 914.71 1161.61 910.611C1163.12 906.645 1156.87 902.987 1158.51 898.847C1159.66 896.03 1162.8 896.919 1167.72 892.51C1170.09 890.459 1172.88 887.887 1172.97 884.668C1173.15 880.2 1168 878.02 1168.86 875.549C1169.77 873.169 1174.71 874.892 1177.98 871.446C1180.37 868.947 1180.51 865.372 1180.58 862.6C1180.81 857.015 1178.71 855.989 1179.63 853.162C1181.35 848.219 1188.5 849.497 1190.25 845.092C1192.44 839.721 1183.01 833.875 1185.1 828.768C1186.99 824.191 1195.75 826.608 1198.37 821.702C1201.42 816.053 1192.05 808.866 1195.13 802.323C1197.39 797.582 1203.37 798.945 1204.85 794.664C1207.03 788.308 1195.23 781.336 1197.55 776.015C1199.28 772.057 1206.68 773.882 1208.09 770.179C1210.13 764.982 1197.01 757.507 1198.97 752.35C1200.42 748.516 1208.49 750.368 1210.41 746.105C1212.58 741.181 1203.33 735.476 1205.26 729.781C1207 724.615 1215.77 725.601 1216.8 721.301C1218.11 715.447 1203.06 709.281 1204.53 703.791C1205.64 699.674 1214.72 701.074 1216.48 696.223C1218.64 690.537 1207.28 684.791 1208.78 676.662C1209.86 671.022 1215.97 670.466 1215.94 665.765C1215.95 658.962 1203.04 656.107 1203.58 650.489C1204.08 645.989 1212.78 645.584 1213.39 640.596C1213.9 635.649 1205.68 633.208 1205.91 626.415C1205.94 625.744 1206 625.389 1208.42 619.803C1213.16 608.897 1213.91 608.122 1213.43 606.581C1211.86 601.369 1200.58 602.385 1199.89 598.418C1199.36 595.039 1207.54 593.002 1207.46 588.433C1207.4 583.418 1197.62 581.675 1197.66 576.395C1197.67 572.994 1201.55 572.123 1201.99 568.963C1202.83 562.776 1185.44 559.961 1185.58 554.417C1185.67 549.989 1196.29 548.723 1196.29 544.113C1196.24 540.082 1187.81 539.156 1183.44 530.16C1182.53 528.377 1181.71 526.553 1181.89 524.277C1182.39 518.569 1188.65 516.632 1188.14 513.791C1187.33 509.327 1170.54 510.744 1169.21 505.856C1168.1 501.424 1181.19 496.409 1180.11 491.083C1179.02 485.981 1166.01 486.792 1164.43 480.595C1163.35 476.254 1169.15 473.537 1168.03 469.105C1166.56 463.405 1156.27 464.417 1154.58 458.708C1153 453.496 1160.77 449.562 1159.19 444.574C1157.32 438.724 1145.36 440.159 1143.5 434.085C1142.2 429.735 1147.6 426.868 1146.19 423.006C1143.97 417.096 1129.43 419.366 1128.19 414.66C1127.26 411.131 1135.17 408.008 1134.43 404.174C1133.4 398.716 1116.64 400.447 1114.28 393.502C1112.73 388.829 1119.24 385.022 1117.47 381.1C1114.85 375.264 1098.45 379.024 1096.73 373.986C1095.73 371.036 1100.93 368.697 1100.24 364.73C1099.18 358.958 1087.46 359.732 1085.06 352.919C1083.42 348.063 1088.3 344.772 1086.43 341.338C1083.18 335.342 1065.92 340.365 1064.27 335.956C1063.3 333.32 1069.01 330.421 1068.19 327.612C1066.69 322.583 1047.09 327.018 1044.3 320.816C1042.16 316.074 1051.66 309.391 1049.4 305.36C1046.86 300.914 1033.82 306.558 1029.89 300.981C1027.18 297.155 1031.55 292.008 1029.02 289.308C1024.9 285.022 1010.24 294.359 1007.91 291.13C1006.18 288.732 1013.95 282.604 1012.02 278.318C1009.76 273.302 997.587 277.683 992.184 270.793C988.783 266.402 991.565 261.861 988.173 259.439C983.212 255.969 974.261 263.615 971.119 260.532C968.58 258.056 973.591 252.622 970.756 247.537C968.258 242.959 960.652 240.679 955.299 242.429C952.126 243.419 951.555 245.32 949.827 244.891C945.528 243.865 947.968 231.253 942.442 228.476C937.924 226.232 932.766 233.048 928.034 230.572C923.565 228.196 925.928 220.773 921.378 218.215C916.695 215.607 911.465 222.017 906.559 219.399C901.785 216.832 904.198 209.277 899.903 207.042C893.898 203.932 884.5 215.946 879.521 212.922C875.459 210.474 879.426 201.013 875.191 198.423C870.476 195.499 862.022 205.224 857.134 202.16C853.336 199.811 856.665 192.831 852.712 189.894C847.241 185.776 836.179 195.798 830.279 191.215C827.457 189.085 829.016 185.971 826.085 184.329C821.32 181.538 815.474 188.774 809.442 186.334C805.302 184.688 806.634 180.58 802.603 178.445C795.203 174.428 786.024 185.466 778.756 181.498C774.552 179.223 775.638 174.568 771.917 173.61C766.163 172.032 761.439 182.491 755.502 180.995C751.294 179.928 752.193 174.37 747.341 172.605C741.432 170.438 736.712 177.496 729.787 175.02C726.39 173.807 726.787 171.764 723.677 171.189C718.566 170.309 716.03 175.397 710.089 175.109C706.961 174.981 707.29 173.518 703.478 172.601C695.102 170.557 691.03 177.105 683.689 174.925C679.266 173.625 679.955 171.012 676.257 170.592C669.044 169.671 665.605 179.332 658.93 178.388C654.348 177.708 654.316 173.007 649.766 172.642C644.454 172.291 642.675 178.574 636.086 178.796C631.782 178.978 631.709 176.379 627.241 176.197C619.645 175.886 617.332 183.177 610.415 182.67C605.327 182.328 605.4 178.347 600.749 178.246C593.641 178.045 591.256 187.123 583.833 186.954C579.852 186.88 580.094 184.25 575.899 183.944C568.494 183.328 566.073 191.106 556.748 192.56C551.299 193.366 551.714 190.877 546.489 191.693C537.479 193.114 536.366 200.633 526.335 202.953C521.456 204.052 521.387 202.438 516.896 203.91C509.637 206.299 509.363 210.808 503.125 212.298C497.252 213.625 495.247 210.141 491.042 212.252C486.474 214.527 488.028 219.2 483.473 222.237C478.138 225.734 473.587 220.982 466.83 224.242C461.44 226.886 463.173 230.493 457.938 233.725C449.858 238.676 441.738 232.57 436.735 237.781C434.3 240.412 435.832 242.354 433.315 244.803C428.614 249.221 421.848 243.931 414.438 246.716C406.258 249.739 409.189 257.96 399.8 265.364C390.229 272.85 382.41 268.144 376.089 276.031C371.748 281.493 374.657 284.79 370.161 289.664C363.886 296.434 356.422 291.788 349.687 297.778C342.022 304.626 347.671 314.257 340.247 320.667C333.289 326.648 326.495 319.836 318.133 325.133C307.239 332.118 313.959 347.297 301.624 356.685C295.25 361.526 290.49 359.72 286.03 365.894C281.711 371.894 284.834 375.423 281.332 382.262C275.837 392.959 265.354 389.889 259.581 399.724C254.191 408.947 261.609 414.711 256.342 424.209C250.45 434.754 239.092 431.202 234.181 440.758C228.394 452.024 240.188 464.592 233.813 471.627C229.641 476.245 223.732 471.886 218.402 476.367C210.239 483.329 220.424 496.95 213.383 511.521C206.784 525.127 193.16 523.361 190.948 534.774C188.754 545.739 200.599 551.595 197.466 561.448C194.492 570.681 183.052 569.139 179.773 578.18C175.783 589.296 190.925 596.629 188.753 610.326C186.472 624.511 168.539 626.329 168.369 638.138C168.231 650.262 186.866 655.366 185.146 665.68C183.773 674.083 170.906 673.512 168.776 682.913C166.445 692.844 179.873 698.317 178.759 712.415C178.243 719.555 174.687 718.962 172.739 728.282C170.413 739.197 174.712 742.417 175.108 757.92C175.48 772.884 171.573 773.217 173.692 781.584C176.887 794.292 185.769 793.805 190.15 805.979C195.538 820.88 183.97 826.852 189.19 840.404C194.574 854.32 210.067 856.342 210.025 867.216C209.938 872.628 204.872 872.824 204.188 878.615C203.143 887.748 214.45 891.433 221.467 904.834C228.442 918.144 220.996 921.823 227.392 935.065C233.952 948.671 242.684 946.387 253.105 962.972C260.04 973.997 256.451 975.283 263.363 985.77C273.484 1000.95 281.874 999.373 288.666 1012.77C294.752 1024.83 289.144 1028.45 295.276 1037.21C304.157 1049.88 317.462 1044.11 327.146 1056.86C334.919 1067.07 328.941 1074.26 337.312 1081.89C345.468 1089.3 353.142 1084.42 361.932 1092.75C369.214 1099.67 366.04 1105.04 372.874 1109.76C381.756 1115.85 390.315 1109.04 397.268 1115.23C403.099 1120.39 398.63 1126.79 403.741 1132.05C412.718 1141.28 431.938 1127.7 442.041 1136.75C449.382 1143.32 442.829 1153.62 450.064 1159.46C459.858 1167.34 477.409 1152.97 487.134 1161.43C492.231 1165.93 488.455 1170.7 493.698 1176.02C502.726 1185.11 517.317 1174.16 530.995 1183.36C538.4 1188.36 536.808 1193.36 544.764 1196.9C551.622 1199.96 553.943 1196.83 566.194 1198.23C579.96 1199.82 580.762 1204.28 589.265 1203.2C599.93 1201.8 602.963 1194.41 609.237 1196.41C615.511 1198.41 614.115 1206.27 620.361 1208.95C628.938 1212.65 636.211 1200.06 647.036 1202.43C657.016 1204.63 656.929 1216.62 666.094 1217.98C675.349 1219.3 678.515 1207.57 690.716 1206.9C700.675 1206.37 703.633 1213.92 712.784 1214.52C726.577 1215.44 729.383 1193.89 742.743 1193.36C751.575 1193.01 752.395 1201.41 762.736 1202.46C776.51 1203.83 779.785 1189.42 797.39 1186.87C810.896 1184.96 814.748 1192.55 825.523 1188.47C835.933 1184.55 833.968 1176.77 844.127 1171.33C860.1 1162.71 874.339 1176.81 886.35 1167.68C894.11 1161.78 890.299 1154.28 898.753 1148.94C908.311 1142.89 915.687 1150.75 926.658 1145.16C936.808 1139.94 933.298 1131.65 944.032 1125.28C954.675 1118.96 959.845 1126.06 972.941 1118.86C980.861 1114.52 981.746 1110.4 989.698 1108.58Z" stroke="#E26B13" stroke-width="2" stroke-miterlimit="10"/>
<path d="M865.521 1064.11C1076.3 969.278 1171.68 724.593 1078.55 517.589C985.414 310.585 739.044 219.651 528.263 314.481C317.482 409.312 222.107 653.997 315.239 861.001C408.37 1068 654.739 1158.94 865.521 1064.11Z" stroke="#E26B13" stroke-width="2" stroke-miterlimit="10"/>
<path d="M875.641 1090.26C1100.78 988.97 1202.64 727.618 1103.17 506.511C1003.69 285.405 740.543 188.273 515.407 289.562C290.271 390.851 188.404 652.203 287.88 873.31C387.356 1094.42 650.505 1191.55 875.641 1090.26Z" stroke="#E26B13" stroke-width="2" stroke-miterlimit="10"/>
<path d="M889.704 1134.92C1136.24 1024 1246.89 735.775 1136.83 491.148C1026.77 246.521 737.69 138.129 491.149 249.048C244.608 359.967 133.966 648.194 244.024 892.821C354.082 1137.45 643.162 1245.84 889.704 1134.92Z" stroke="#E26B13" stroke-width="2" stroke-miterlimit="10"/>
<path d="M745.851 816.398C816.867 784.448 848.537 700.978 816.586 629.962C784.636 558.946 701.166 527.277 630.15 559.227C559.134 591.177 527.465 674.647 559.415 745.663C591.365 816.679 674.836 848.348 745.851 816.398Z" stroke="#E26B13" stroke-width="2" stroke-miterlimit="10"/>
<path d="M741.357 797.147C802.199 769.774 829.332 698.262 801.959 637.42C774.586 576.578 703.074 549.446 642.232 576.819C581.39 604.192 554.257 675.704 581.63 736.546C609.003 797.388 680.515 824.52 741.357 797.147Z" stroke="#E26B13" stroke-width="2" stroke-miterlimit="10"/>
<path d="M1035.38 916.414L668.072 726.385" stroke="#E26B13" stroke-width="2" stroke-miterlimit="10"/>
<path d="M924.388 1025.56L715.091 616.411" stroke="#E26B13" stroke-width="2" stroke-miterlimit="10"/>
<path d="M1079.84 847.067L718.416 655.487" stroke="#E26B13" stroke-width="2" stroke-miterlimit="10"/>
<path d="M1104.97 768.871L708.522 645.683" stroke="#E26B13" stroke-width="2" stroke-miterlimit="10"/>
<path d="M737.377 739.067L1114.64 685.568" stroke="#E26B13" stroke-width="2" stroke-miterlimit="10"/>
<path d="M1106.26 606.002L724.52 725.113" stroke="#E26B13" stroke-width="2" stroke-miterlimit="10"/>
<path d="M1077.91 533.229L688.961 653.388" stroke="#E26B13" stroke-width="2" stroke-miterlimit="10"/>
<path d="M986.725 398.804L735.189 726.892" stroke="#E26B13" stroke-width="2" stroke-miterlimit="10"/>
<path d="M927.682 343.126L739.57 685.446" stroke="#E26B13" stroke-width="2" stroke-miterlimit="10"/>
<path d="M689.311 283.695L748.052 675.051" stroke="#E26B13" stroke-width="2" stroke-miterlimit="10"/>
<path d="M1037.56 458.174L670.358 648.598" stroke="#E26B13" stroke-width="2" stroke-miterlimit="10"/>
<path d="M854.914 305.686L662.423 667.52" stroke="#E26B13" stroke-width="2" stroke-miterlimit="10"/>
<path d="M773.481 283.109L649.109 664.738" stroke="#E26B13" stroke-width="2" stroke-miterlimit="10"/>
<path d="M611.752 286.789L739.57 685.446" stroke="#E26B13" stroke-width="2" stroke-miterlimit="10"/>
<path d="M279.687 701.549L675.282 659.542" stroke="#E26B13" stroke-width="2" stroke-miterlimit="10"/>
<path d="M287.217 615.92L659.59 736.78" stroke="#E26B13" stroke-width="2" stroke-miterlimit="10"/>
<path d="M311.025 537.223L637.159 716.169" stroke="#E26B13" stroke-width="2" stroke-miterlimit="10"/>
<path d="M348.784 467.601C466.13 523.694 583.517 579.878 700.863 635.971" stroke="#E26B13" stroke-width="2" stroke-miterlimit="10"/>
<path d="M464.608 349.699L634.699 688.766" stroke="#E26B13" stroke-width="2" stroke-miterlimit="10"/>
<path d="M527.807 314.687L649.109 664.738" stroke="#E26B13" stroke-width="2" stroke-miterlimit="10"/>
<path d="M638.185 707.483C638.136 705.422 638.797 696.9 636.408 696.221C634.904 695.801 633.608 699.016 629.523 700.415C626.705 701.463 623.718 701.162 621.908 700.551C615.593 698.458 611.386 688.618 613.292 681.4C615.609 672.901 624.491 674.607 632.809 663.847C641.035 653.128 638.1 643.922 644.483 641.05C651.232 638.014 657.304 651.511 666.049 649.989C674.795 648.467 674.276 634.883 682.511 630.521C697.381 622.625 738.516 645.567 746.205 681.913C750.813 703.854 743.798 733.108 722.125 745.38C685.879 765.964 638.23 726.105 638.185 707.483Z" fill="#E26B13"/>
</g>
</g>
<defs>
<clipPath id="clip0">
<rect width="1053.1" height="1035.9" fill="white" transform="translate(0 432.075) rotate(-24.223)"/>
</clipPath>
</defs>
</svg>
