<svg xmlns="http://www.w3.org/2000/svg" viewBox="0 0 1150.19 624.05"><defs><style>.cls-1{fill:none;}.cls-1,.cls-2{stroke:#fff;stroke-miterlimit:10;}.cls-2{fill:#e26b13;}</style></defs><g id="Layer_2" data-name="Layer 2"><g id="Layer_1-2" data-name="Layer 1"><path class="cls-1" d="M1142.74,611.31c-1.51-10.09-3.72-23-7-38-8.15-37.11-13.43-43.48-19-45-1.85-.5-6.93,1-17,4-15.56,4.65-18,6.25-24,7-7.2.9-9.22-.7-23-3-30.69-5.11-33.23.74-54-5-4.94-1.37-9.11-2.89-15-2-9.32,1.41-10.72,7-20,10-6.23,2-6.6-.18-26-1-15.68-.66-18.33.65-24-2-7.56-3.53-8.33-8.43-14-14-13.8-13.57-29-4-64-14-15-4.28-15.41-7-28-9-16.7-2.71-29.37-.19-37,1-23.69,3.68-33.54-.16-69-2-23.71-1.23-58.06-1.52-103,3a47.27,47.27,0,0,0-22-6c-14.75-.14-22.63,7.55-36,12-12.19,4.05-22.18,3.16-44,0-105.29-15.27-157.93-22.9-178-37-2.44-1.71-13.42-9.71-20-6-5.67,3.2-4,12.77-10,15-5.3,2-11.58-3.61-12-4-2.26-2.06-4.42-5.18-7-19-2.75-14.69-2.3-21.79-6-23a6.08,6.08,0,0,0-6,2,5.86,5.86,0,0,0-1,4c.37,7.95-12.45,30.4-20,29-1.84-.34-2.92-2.23-5-6-5.61-10.14-9.65-26.12-9-36,.06-.88.25-3.18-1-4-1.46-1-4.35.45-6,2-3.86,3.63-1.73,8.81-3,15-2.1,10.23-12.77,19.68-19,18s-7.72-13.89-8-16c-1.18-8.89,2.1-10.8,2-23,0-3.24-.14-16.63-5-18-1.24-.35-2.36.2-4,1-1,.48-5.21,2.7-8,10-1.91,5-1.53,8.17-2,11-2,12.23-21,24.8-31,20-7.15-3.45-9.33-15.7-9-23,.28-6.11,2.35-9.54,2-19-.17-4.51-.43-10.15-3-11s-6.16,3.24-8,6c-3.81,5.71-3.1,10.61-4,16-2.45,14.56-15.75,26.74-21,25-2.37-.79-1.43-3.85-6-10-1.6-2.14-6.63-8.91-11-8-1,.2-1.36.67-6,6-4.43,5.09-4.95,5.66-6,6-3.48,1.11-6.18-2.47-11-5-10.6-5.56-16.47,1.87-24-3-7.35-4.75-3-12.64-12-20-5.6-4.58-11-4.58-12-9-.29-1.28-.17-2.8,3-9,3.59-7,5.33-8.74,7-12,.42-.82,6.27-12.59,2-22-2.22-4.91-4.69-3.65-13-14-4.5-5.61-5.85-8.56-5-11s3.78-3.16,4-6c.15-1.89-1.06-2.48-2-5-1-2.72-1.8-7.89,1-11,2.37-2.63,6.82-3.26,10-2,4.12,1.64,3.78,5.53,8,7a9.34,9.34,0,0,0,8-1c3.81-2.63,3.87-8.31,4-14,0,0,.38-16.82,2-34,.74-7.88,1.9-15,7-20,3.17-3.13,5.42-3.05,6-3,3.71.32,6.06,5,8,9,8.6,17.87,11.82,29.25,14,29,1.37-.15,1.88-4.84,2-6a133,133,0,0,0-6-55c-4.13-11-7.81-20.42-14-21-2.66-.25-4,1.31-12,7-9.94,7.08-19.74,14-22,12-.26-.22-.86-.95,0-4,2.6-9.27,10.41-10.61,20-21,6.53-7.07,6.95-10.82,12-12,4.7-1.1,9.51.94,12,2,6.69,2.84,6.47,5.92,12,7,3.93.77,6.74-.26,9,2,1.29,1.29.75,2,2,4,3.16,5.06,9.94,5.87,11,6,2.92.35,6.8.05,7-1s-3.79-1.85-9-6a23.32,23.32,0,0,1-5-5c-2.94-4.28-1.95-7.54-3-12-2.3-9.78-10.48-8.74-13-18-1.95-7.18,2.13-10.89-1-16-2.3-3.75-6.67-5.29-10-6-19.69,8-25.71,8-27,6a4.45,4.45,0,0,1,0-4c1-1.92,3.1-1.45,5-3,2.93-2.4,3-7.65,2-11a14.06,14.06,0,0,0-5-7c-3.58-2.63-6.88-2.22-8-5a3.8,3.8,0,0,1,0-3c1.08-2,4.63-2,6-2,7.51,0,16.2,4.81,21,7,14.88,6.79,30.69,6.22,33,2a10.18,10.18,0,0,0,1-4,11.55,11.55,0,0,0-1-5c-2.69-5.44-10.33-4.15-12-9a7,7,0,0,1,0-4c.06-.22,1.05-3.87,4-5a6.34,6.34,0,0,1,4,0c4.68,1.28,16.3,4.46,23,0a12.46,12.46,0,0,0,5-7,12.76,12.76,0,0,0,0-5c-1.66-8.28-15.07-17.38-16-18-2-9-.68-15.07,1-19,1-2.38,2-3.6,3-7,.93-3.17,2.53-8.69,0-14a14.54,14.54,0,0,0-4-5"/><circle class="cls-2" cx="100.1" cy="7" r="6.5"/><circle class="cls-2" cx="1143.19" cy="617.05" r="6.5"/></g></g></svg>