<svg width="56" height="77" viewBox="0 0 56 77" fill="none" xmlns="http://www.w3.org/2000/svg">
<g clip-path="url(#clip0)">
<path d="M39.8576 8.83346V66.5179C36.0102 70.0119 32.1533 73.506 28.3058 77C24.2608 73.506 20.2252 70.0119 16.1802 66.5179C16.1802 47.2866 16.1802 28.0647 16.1802 8.83346C20.2252 5.89209 24.2608 2.94136 28.3058 0C32.1533 2.94136 36.0102 5.89209 39.8576 8.83346Z" fill="white"/>
<path d="M13.8759 53.9562L12.8223 53.0757L42.0593 23.0625L43.1035 23.9431L13.8759 53.9562Z" fill="white"/>
<path d="M13.8473 55.2395C13.1135 54.537 12.3892 53.8344 11.6554 53.1412C10.0374 53.6939 8.41 54.2466 6.79199 54.7899C8.66399 56.7102 10.5454 58.6399 12.4174 60.5602C12.8971 58.7898 13.3769 57.01 13.8473 55.2395Z" fill="white"/>
<path d="M11.907 60.9682L6.33301 55.2592L-0.0071358 61.3974L5.56685 67.1064L11.907 60.9682Z" fill="white"/>
<path d="M42.1436 21.826C42.8773 22.5286 43.6016 23.2311 44.3354 23.9243C45.9534 23.3716 47.5808 22.819 49.1988 22.2757C47.3268 20.3553 45.4454 18.4257 43.5734 16.5053C43.1031 18.2758 42.6233 20.0462 42.1436 21.826Z" fill="white"/>
<path d="M44.0876 16.0912L49.6616 21.8001L56.0018 15.6619L50.4278 9.95295L44.0876 16.0912Z" fill="white"/>
</g>
<defs>
<clipPath id="clip0">
<rect width="56" height="77" fill="white"/>
</clipPath>
</defs>
</svg>
