<svg width="41" height="57" viewBox="0 0 41 57" fill="none" xmlns="http://www.w3.org/2000/svg">
<g clip-path="url(#clip0)">
<path d="M35.5715 26.4336L34.0591 26.7765L39.4853 50.8922L40.9977 50.5494L35.5715 26.4336Z" fill="white"/>
<path d="M17.174 25.2401L15.0005 26.2781L29.5595 56.996L31.7331 55.9581L17.174 25.2401Z" fill="white"/>
<path d="M0.41347 9.57535C0.273186 13.4737 0.140284 17.3794 0 21.2777L9.89375 27.4884L20.201 21.9892L20.6144 10.2868C17.3141 8.21909 14.0211 6.14393 10.7207 4.07619C10.573 5.18047 10.4254 6.29216 10.2777 7.39644C12.7437 9.04174 15.2024 10.6944 17.6685 12.3397C17.4543 15.03 17.2328 17.7203 17.0187 20.4032C14.8554 21.5964 12.6994 22.7896 10.5361 23.9828C8.15865 22.508 5.7812 21.0332 3.40374 19.5583C3.44805 16.6531 3.49235 13.7479 3.53665 10.8427C2.4882 10.4202 1.44715 9.99779 0.41347 9.57535Z" fill="white"/>
<path d="M34.4554 24.8922C36.7066 24.3819 37.2798 18.4046 35.7356 11.5416C34.1913 4.67858 31.1145 -0.47124 28.8633 0.0391306C26.6121 0.549502 26.0389 6.5268 27.5832 13.3898C29.1274 20.2528 32.2042 25.4026 34.4554 24.8922Z" fill="white"/>
</g>
<defs>
<clipPath id="clip0">
<rect width="41" height="57" fill="white"/>
</clipPath>
</defs>
</svg>
