<svg width="32" height="45" viewBox="0 0 32 45" fill="none" xmlns="http://www.w3.org/2000/svg">
<g clip-path="url(#clip0)">
<path d="M27.7629 20.8686L26.5825 21.1393L30.8176 40.178L31.998 39.9073L27.7629 20.8686Z" fill="black"/>
<path d="M13.4044 19.9264L11.708 20.7458L23.0712 44.9969L24.7676 44.1775L13.4044 19.9264Z" fill="black"/>
<path d="M0.322708 7.55946C0.213218 10.6371 0.10949 13.7206 0 16.7982L7.72195 21.7013L15.7666 17.3599L16.0893 8.12115C13.5134 6.48872 10.9433 4.85045 8.36737 3.21802C8.25211 4.08982 8.13686 4.96747 8.02161 5.83926C9.94633 7.13818 11.8653 8.44296 13.79 9.74188C13.6229 11.8658 13.45 13.9897 13.2829 16.1078C11.5945 17.0498 9.91176 17.9918 8.2233 18.9338C6.36773 17.7694 4.51215 16.6051 2.65658 15.4407C2.69116 13.1472 2.72573 10.8536 2.76031 8.55998C1.94201 8.22647 1.12948 7.89296 0.322708 7.55946Z" fill="black"/>
<path d="M26.8922 19.6517C28.6492 19.2488 29.0966 14.5298 27.8913 9.11169C26.6861 3.69354 24.2847 -0.372108 22.5276 0.0308168C20.7706 0.433741 20.3232 5.15266 21.5285 10.5708C22.7337 15.989 25.1351 20.0546 26.8922 19.6517Z" fill="black"/>
</g>
<defs>
<clipPath id="clip0">
<rect width="32" height="45" fill="white"/>
</clipPath>
</defs>
</svg>
