<svg xmlns="http://www.w3.org/2000/svg" viewBox="0 0 943.02 479.25"><defs><style>.cls-1{fill:#e26b13;}.cls-1,.cls-2{stroke:#fff;stroke-miterlimit:10;}.cls-2{fill:none;}</style></defs><g id="Layer_2" data-name="Layer 2"><g id="Layer_1-2" data-name="Layer 1"><circle class="cls-1" cx="7" cy="13.31" r="6.5"/><path class="cls-2" d="M12.68,11.28A147.4,147.4,0,0,1,40.19,1.46c4.18-1,9.71-1.92,12.34,1a5.66,5.66,0,0,1,1.26,2.53c3,11.82,11,17.53,8.86,27.19-.07.32-1.85,7.95-8.21,12-4.21,2.69-7.59,2-10.12,5.06S42.06,57,42.74,60.28L26.93,69.77q18.34,28.77,36.7,57.55c2.74-2.44,24.62-21.59,33.83-16.14a16.23,16.23,0,0,1,2.53,1.89c5.73,5.13,4.87,10.84,10.13,13.91a4.78,4.78,0,0,0,2.84,1c3.24-.19,5-4.85,7.27-9.17,1.39-2.7,9.38-18.17,16.44-17.71a7,7,0,0,1,4.43,2.52c13.49,13.93,17.56,42.72,26.58,43.64a22.71,22.71,0,0,0,9.8-1c1.29-.51,3.12-1.44,4.43-.63a3.38,3.38,0,0,1,1.26,2.53c.18,2.53-2.1,4.17-2.84,5.38-4.86,7.86,30,38.77,40.17,37.62a9.37,9.37,0,0,1,5.06.63,10.41,10.41,0,0,1,4.74,4.74c6.29,11.31,52.66,32.77,68.32,41.72a3.48,3.48,0,0,0,1.9.63c5.72-.1,13-18.47,17.07-25.93.27-.5.92-1.67,1.58-1.59s1.05,1.78,1.26,2.53c1.47,5.05,10.95,8.93,13.6,6.64,1.46-1.25,0-3.6,2.22-6.64a5,5,0,0,1,2.84-2.22c2.3-.43,4.54,2,5.38,2.85,6.65,7,13.83,14.58,19.93,16.12,2.84.72,3.08-.48,19.28-7.28,15.13-6.35,19.5-7.22,24.35-6.65,3.62.43,6.21,1.55,11.39,3.79,11.87,5.15,15.15,10.44,21.19,9.17,1.16-.25,3.51-1,8.22-2.53,1.88-.61,3.85-1.27,4.74-1.59,7.05-2.47,15.06-5.28,18.65-11.7,1.84-3.29,1.11-5,3.8-8.23,1.18-1.42,3.37-4,6.64-4.11a7.79,7.79,0,0,1,4.74,1.58,11,11,0,0,1,4.11,6.64c1.67,7.19-3.57,11.49-.94,15.5a4.63,4.63,0,0,0,3.48,2.21c2.55,0,3.38-3.34,6.32-6.33,5.95-6,12.79-2.64,16.44-8.22a17.91,17.91,0,0,0,.82-1.79,29.18,29.18,0,0,0,1.71-5.81c.28-1.25,1.21-3.14,5.69-7.59,9.88-9.8,17.72-9.69,19-15.81.63-3.11-1.12-4.4.31-7.28,1.29-2.59,3.25-2.58,7.27-6,3.19-2.71,6-5.07,5.69-7.59-.25-2.34-2.92-3-7.27-6.64a45.41,45.41,0,0,1-7-7.58c-4-4.73-37.13-36.62-116.72-111.6-5.63,1.44-8.68,3.94-10.44,6-1.92,2.28-2.14,3.86-4.11,6-1.15,1.26-5.87,6.36-10.11,5.07-3.54-1.08-4.83-6-5.07-7-1.06-4.11.79-5.39,0-9.49-1-5.46-4.93-6.19-4.43-8.85.91-4.82,14.35-6.35,22.45-7.28,1.83-.21,4.81-.35,10.75-.63,13.83-.67,17.5-.26,19.29,2.2,1.05,1.44.66,2.5,2.53,5.06,1,1.38,2.82,3.85,5.07,3.8,1.81-.05,2.15-1.71,3.79-1.9,2.67-.32,4.74,3.73,7.28,6.64,2.85,3.28,5.43,4.1,13.28,7.58,7.37,3.27,14.5,7.06,21.82,10.43,24,11,55.17,33.33,59.78,38.88.43.51,1.71,2.18,3.48,2.21,2.16,0,3-2.37,5.06-2.53,2.46-.19,4.55,3,5.06,3.79,5,7.26,18,10.11,37,25,17.26,13.53,16.6,19.13,26.25,22.45,1.6.55,6.17,2,7.59,5.69,1.5,3.94-1.33,8.41-2.21,9.8-5.13,8.1-12,6.5-23.08,15.5-5.59,4.53-4.32,5.3-9.17,8.54-8.21,5.49-15.09,5.43-15.81,9.49-.35,2,.91,4.46,2.54,5.06s3.15-.57,4.74-1.58c9.61-6.09,12.27-3.73,19-9.49,1.86-1.6,2.48-2.5,4.11-2.85,3.81-.82,5.62,3,9.49,3.16,5.41.27,6.6-6.92,12-7.59,7-.87,10.17,10.52,16.76,9.8,6.9-.76,9.83-13.92,14.86-13a4.36,4.36,0,0,1,2.53,1.89c8.77,11.26,24.3,13.08,35.75,31.93a26.13,26.13,0,0,1,3.16,6.32c2.78,8.93-1.63,15.17-5,27.83-2.73,10.12-.48,8.2-3.79,24-2.93,14-6,24.35-6,24.35-2.48,8.33-6,18.5-2.52,23.4a4.07,4.07,0,0,0,2.53,1.9c2.18.3,3.45-2.43,6.95-5.06,3.75-2.83,4.49-1.36,7.59-3.8,3.77-3,2.82-5.26,7.27-9.17,1.93-1.7,3.9-3.39,6.33-3.17,1.4.13,1.92.8,5.37,2.85,3.06,1.8,4.58,2.7,5.38,2.84,3.58.62,5.33-3.2,12-7.59,4.48-2.94,4.28-1.62,11.39-5.7,2.79-1.6,5.44-3.39,10.75-7,4.81-3.24,7.21-4.86,8.22-5.69,7.26-6.06,7.11-9.79,11.06-11.07,4.2-1.36,8.4,1.54,14.87,6,6.21,4.29,14.28,9.86,19.61,20.23,3.48,6.78,3.8,11.72,8.22,13.28,2.25.79,3-.19,9.49,0,4.47.13,7,.21,10.12,1.26,5.2,1.79,4.73,3.94,9.81,5.37a32.69,32.69,0,0,0,9.17.95c3.44-.11,4.49-.66,6.32,0,3.16,1.13,4.6,4.41,5.38,6,6.14,12.53,16.61,12.4,21.83,26.24,1,2.78.93,3.59,2.21,6,3.12,5.86,7.73,8.46,12,11.38,8.55,5.81,18.31,12.46,18.67,19.92.19,4.12-2.55,7.15-5.69,10.75,0,0-12.54,14.36-30.67,38.28-11.73,15.48-17.7,24.67-17.7,24.67-5.78,8.91-10.31,16.84-14.85,16.13-2.77-.44-4.33-3.89-4.75-4.74-3.66-7.55-21.84-26.75-72.44-70.5a38.38,38.38,0,0,0,10.75-10.12,5.31,5.31,0,0,0,1.27-3.8c-.35-2.14-2.59-3-5.7-5.06-4.08-2.68-7.36-4.83-8.86-8.21-1.63-3.69.59-4.92-1-9.81a17.15,17.15,0,0,0-5.69-8.22c-4.36-3.29-6.54-1-11.39-3.79-5.33-3.09-4-6.67-10.12-10.75-2.62-1.75-2.61-.92-9.17-4.11-4.15-2-7.24-3.84-9.81-5.37-9.78-5.82-9.13-6.77-11.38-6.95-7.44-.6-17.35,9.51-18,19.29-.27,3.95,1,7.19-.63,8.23s-4.16-1.87-9.17-4.11c-8.94-4-12.63.29-20.88-3.79-3.54-1.76-5.88-4-9.17-7.27-6-5.91-5.8-8.38-10.12-10.75-4.55-2.5-9.46-2.33-13-2.21-7.56.26-10.67,2.9-13.91.64-1.55-1.08-1.16-1.9-4.43-5.69a32.58,32.58,0,0,0-4.74-4.75c-4.77-3.61-8.24-1.92-13.29-4.42-4.66-2.31-6.8-6.28-7.91-7.9-4.24-6.25-27.91-28.92-92.68-85.67"/><circle class="cls-1" cx="875.57" cy="472.25" r="6.5"/></g></g></svg>