<svg width="61" height="37" viewBox="0 0 61 37" fill="none" xmlns="http://www.w3.org/2000/svg">
<g clip-path="url(#clip0)">
<mask id="mask0" mask-type="alpha" maskUnits="userSpaceOnUse" x="0" y="1" width="62" height="35">
<path d="M60.6767 32.4255C60.6028 32.2675 60.5339 32.1364 60.47 32.0314C59.4116 30.1395 57.3891 27.8173 54.4037 25.0641L54.3407 25.0011L54.3091 24.9701L54.2771 24.9385H54.2451C52.8902 23.6565 52.0322 22.7945 51.6729 22.3532C51.0155 21.5125 50.8681 20.6616 51.2275 19.7994C51.4813 19.148 52.4349 17.7723 54.086 15.6703C54.9544 14.5563 55.6422 13.6635 56.1502 12.9909C59.8134 8.15707 61.4016 5.06818 60.9144 3.72302L60.7252 3.40867C60.5979 3.21942 60.2699 3.04629 59.741 2.8884C59.2112 2.73085 58.5337 2.7048 57.7079 2.8098L48.5611 2.87251C48.413 2.82039 48.2014 2.82525 47.9257 2.8884C47.6503 2.95157 47.5127 2.98326 47.5127 2.98326L47.3535 3.0622L47.227 3.15704C47.1211 3.21976 47.0047 3.33007 46.8777 3.48774C46.7511 3.64485 46.6453 3.82923 46.5608 4.03936C45.565 6.58225 44.4327 8.94652 43.1621 11.132C42.3786 12.4352 41.6591 13.5646 41.002 14.5209C40.3457 15.4768 39.7952 16.1812 39.3509 16.6326C38.906 17.0846 38.5044 17.4467 38.1436 17.7201C37.7836 17.9938 37.5087 18.1093 37.3184 18.0669C37.1277 18.0247 36.948 17.9828 36.7779 17.9408C36.4817 17.7516 36.2433 17.4943 36.0637 17.1685C35.8833 16.8427 35.7618 16.4328 35.6984 15.9389C35.6352 15.4447 35.5977 15.0196 35.5871 14.6622C35.5772 14.3053 35.5816 13.8003 35.6032 13.1489C35.6252 12.4972 35.6352 12.0562 35.6352 11.825C35.6352 11.0262 35.6508 10.1594 35.6823 9.2242C35.7143 8.28901 35.7402 7.54803 35.7619 7.00215C35.7834 6.45573 35.7934 5.8776 35.7934 5.26813C35.7934 4.65865 35.7562 4.18068 35.6823 3.83375C35.6093 3.48728 35.4973 3.15097 35.3497 2.82493C35.2012 2.49922 34.9838 2.24725 34.6985 2.06838C34.4128 1.88974 34.0575 1.74796 33.6347 1.64263C32.5123 1.39056 31.0832 1.2542 29.3466 1.233C25.4085 1.19104 22.8782 1.44345 21.756 1.98988C21.3114 2.22076 20.9089 2.5362 20.5492 2.93523C20.168 3.39774 20.1149 3.65015 20.3901 3.69166C21.6606 3.88058 22.5602 4.3325 23.0895 5.04697L23.2803 5.42558C23.4287 5.69874 23.5768 6.18235 23.7253 6.87573C23.8732 7.56912 23.9688 8.33615 24.0108 9.17639C24.1165 10.7108 24.1165 12.0243 24.0108 13.1169C23.9049 14.21 23.8047 15.0609 23.7092 15.6704C23.6136 16.2799 23.4708 16.7737 23.2803 17.1519C23.0895 17.5303 22.9626 17.7613 22.8991 17.8453C22.8355 17.9292 22.7825 17.9822 22.7405 18.0029C22.4653 18.1075 22.1791 18.1608 21.8827 18.1608C21.5862 18.1608 21.2263 18.0136 20.803 17.7191C20.3798 17.4248 19.9404 17.0205 19.4851 16.5056C19.0298 15.9905 18.5164 15.2707 17.9445 14.3461C17.373 13.4215 16.7801 12.3288 16.166 11.0679L15.658 10.1534C15.3404 9.56516 14.9065 8.70857 14.356 7.58446C13.8051 6.45991 13.3182 5.37213 12.895 4.32135C12.7258 3.88002 12.4716 3.54404 12.1328 3.31284L11.9739 3.21799C11.8682 3.13408 11.6986 3.04498 11.4658 2.95003C11.2328 2.85517 10.9896 2.78716 10.7353 2.74532L2.03305 2.80803C1.14378 2.80803 0.540409 3.00798 0.222704 3.40735L0.0955562 3.59626C0.0320375 3.70148 0 3.86954 0 4.10084C0 4.33206 0.0635188 4.61582 0.190667 4.95179C1.46104 7.91526 2.84255 10.7733 4.33519 13.5263C5.82782 16.2793 7.12488 18.497 8.22561 20.1773C9.32658 21.8588 10.4488 23.4456 11.5922 24.9373C12.7357 26.4296 13.4926 27.3859 13.8629 27.806C14.2336 28.2268 14.5249 28.5415 14.7366 28.7515L15.5307 29.508C16.0389 30.0126 16.7851 30.6167 17.7696 31.3205C18.7544 32.0248 19.8448 32.7183 21.0411 33.4019C22.2375 34.0842 23.6295 34.6413 25.2177 35.072C26.8056 35.503 28.3513 35.6761 29.8548 35.5927H33.5071C34.2479 35.5291 34.8091 35.298 35.1906 34.8989L35.317 34.741C35.402 34.6155 35.4815 34.4206 35.5549 34.1584C35.6293 33.8957 35.6662 33.6063 35.6662 33.2916C35.6445 32.388 35.7138 31.5738 35.8722 30.8488C36.0305 30.1241 36.211 29.5776 36.4128 29.2097C36.6144 28.842 36.842 28.5317 37.0953 28.2801C37.3491 28.028 37.5301 27.8753 37.6362 27.8228C37.7415 27.77 37.8258 27.734 37.8893 27.7125C38.3975 27.5445 38.9954 27.7073 39.6842 28.2016C40.3725 28.6954 41.0181 29.3052 41.6218 30.0299C42.2254 30.7554 42.9504 31.5692 43.7972 32.4727C44.6445 33.3765 45.3854 34.0484 46.0204 34.4904L46.6553 34.8686C47.0795 35.1211 47.63 35.3523 48.3076 35.5624C48.984 35.7724 49.5767 35.8249 50.0857 35.72L58.216 35.594C59.0202 35.594 59.6458 35.462 60.0897 35.1996C60.5345 34.9371 60.7987 34.6476 60.8839 34.3328C60.9688 34.0178 60.9734 33.6602 60.9 33.2605C60.8246 32.8619 60.7504 32.583 60.6767 32.4255Z" fill="white"/>
</mask>
<g mask="url(#mask0)">
<path d="M60.6767 32.4255C60.6028 32.2675 60.5339 32.1364 60.47 32.0314C59.4116 30.1395 57.3891 27.8173 54.4037 25.0641L54.3407 25.0011L54.3091 24.9701L54.2771 24.9385H54.2451C52.8902 23.6565 52.0322 22.7945 51.6729 22.3532C51.0155 21.5125 50.8681 20.6616 51.2275 19.7994C51.4813 19.148 52.4349 17.7723 54.086 15.6703C54.9544 14.5563 55.6422 13.6635 56.1502 12.9909C59.8134 8.15707 61.4016 5.06818 60.9144 3.72302L60.7252 3.40867C60.5979 3.21942 60.2699 3.04629 59.741 2.8884C59.2112 2.73085 58.5337 2.7048 57.7079 2.8098L48.5611 2.87251C48.413 2.82039 48.2014 2.82525 47.9257 2.8884C47.6503 2.95157 47.5127 2.98326 47.5127 2.98326L47.3535 3.0622L47.227 3.15704C47.1211 3.21976 47.0047 3.33007 46.8777 3.48774C46.7511 3.64485 46.6453 3.82923 46.5608 4.03936C45.565 6.58225 44.4327 8.94652 43.1621 11.132C42.3786 12.4352 41.6591 13.5646 41.002 14.5209C40.3457 15.4768 39.7952 16.1812 39.3509 16.6326C38.906 17.0846 38.5044 17.4467 38.1436 17.7201C37.7836 17.9938 37.5087 18.1093 37.3184 18.0669C37.1276 18.0247 36.948 17.9828 36.7779 17.9408C36.4817 17.7516 36.2433 17.4943 36.0637 17.1685C35.8833 16.8427 35.7618 16.4328 35.6984 15.9389C35.6352 15.4447 35.5977 15.0196 35.5871 14.6622C35.5772 14.3053 35.5816 13.8003 35.6032 13.1489C35.6252 12.4972 35.6352 12.0562 35.6352 11.825C35.6352 11.0262 35.6508 10.1594 35.6823 9.2242C35.7143 8.28901 35.7402 7.54803 35.7619 7.00215C35.7834 6.45573 35.7934 5.8776 35.7934 5.26813C35.7934 4.65865 35.7562 4.18068 35.6823 3.83375C35.6093 3.48728 35.4973 3.15097 35.3497 2.82493C35.2012 2.49922 34.9838 2.24725 34.6985 2.06838C34.4128 1.88974 34.0575 1.74796 33.6347 1.64263C32.5123 1.39056 31.0832 1.2542 29.3466 1.233C25.4085 1.19104 22.8782 1.44345 21.756 1.98988C21.3114 2.22076 20.9089 2.5362 20.5492 2.93523C20.168 3.39774 20.1149 3.65015 20.3901 3.69166C21.6606 3.88058 22.5602 4.3325 23.0895 5.04697L23.2803 5.42558C23.4287 5.69874 23.5768 6.18235 23.7253 6.87573C23.8732 7.56912 23.9688 8.33615 24.0108 9.17639C24.1165 10.7108 24.1165 12.0243 24.0108 13.1169C23.9049 14.21 23.8047 15.0609 23.7092 15.6704C23.6136 16.2799 23.4708 16.7737 23.2803 17.1519C23.0895 17.5303 22.9626 17.7613 22.8991 17.8453C22.8355 17.9292 22.7825 17.9822 22.7405 18.0029C22.4653 18.1075 22.1791 18.1608 21.8827 18.1608C21.5862 18.1608 21.2263 18.0136 20.803 17.7191C20.3798 17.4248 19.9404 17.0205 19.4851 16.5056C19.0298 15.9905 18.5164 15.2707 17.9445 14.3461C17.373 13.4215 16.7801 12.3288 16.166 11.0679L15.658 10.1534C15.3404 9.56516 14.9065 8.70857 14.356 7.58446C13.8051 6.45991 13.3182 5.37213 12.895 4.32135C12.7258 3.88002 12.4716 3.54404 12.1328 3.31284L11.9739 3.21799C11.8682 3.13408 11.6986 3.04498 11.4658 2.95003C11.2328 2.85517 10.9896 2.78716 10.7353 2.74532L2.03305 2.80803C1.14378 2.80803 0.540409 3.00798 0.222704 3.40735L0.0955562 3.59626C0.0320375 3.70148 0 3.86954 0 4.10084C0 4.33206 0.0635188 4.61582 0.190667 4.95179C1.46104 7.91526 2.84255 10.7733 4.33519 13.5263C5.82782 16.2793 7.12488 18.497 8.22561 20.1773C9.32658 21.8588 10.4488 23.4456 11.5922 24.9373C12.7357 26.4296 13.4926 27.3859 13.8629 27.806C14.2336 28.2268 14.5249 28.5415 14.7366 28.7515L15.5307 29.508C16.0389 30.0126 16.7851 30.6167 17.7696 31.3205C18.7545 32.0248 19.8448 32.7183 21.0411 33.4019C22.2375 34.0842 23.6295 34.6413 25.2177 35.072C26.8056 35.503 28.3513 35.6761 29.8548 35.5927H33.5071C34.2479 35.5291 34.8091 35.298 35.1906 34.8989L35.317 34.741C35.402 34.6155 35.4815 34.4206 35.5549 34.1584C35.6293 33.8957 35.6662 33.6063 35.6662 33.2916C35.6445 32.388 35.7138 31.5738 35.8722 30.8488C36.0305 30.1241 36.211 29.5776 36.4128 29.2097C36.6144 28.842 36.842 28.5317 37.0953 28.2801C37.3491 28.028 37.5301 27.8753 37.6362 27.8228C37.7415 27.77 37.8258 27.734 37.8893 27.7125C38.3975 27.5445 38.9954 27.7073 39.6842 28.2016C40.3725 28.6953 41.0181 29.3052 41.6218 30.0299C42.2254 30.7554 42.9504 31.5692 43.7972 32.4727C44.6445 33.3765 45.3854 34.0484 46.0204 34.4904L46.6553 34.8686C47.0795 35.1211 47.63 35.3523 48.3076 35.5624C48.984 35.7724 49.5767 35.8249 50.0857 35.72L58.216 35.594C59.0202 35.594 59.6458 35.462 60.0897 35.1996C60.5345 34.9371 60.7987 34.6476 60.8839 34.3328C60.9688 34.0178 60.9734 33.6602 60.9 33.2605C60.8246 32.8619 60.7504 32.583 60.6767 32.4255Z" stroke="#0F0000" stroke-width="5"/>
</g>
</g>
<defs>
<clipPath id="clip0">
<rect width="61" height="37" fill="white"/>
</clipPath>
</defs>
</svg>
