<svg width="61" height="38" viewBox="0 0 61 38" fill="none" xmlns="http://www.w3.org/2000/svg">
<g clip-path="url(#clip0)">
<mask id="mask0" mask-type="alpha" maskUnits="userSpaceOnUse" x="0" y="1" width="62" height="35">
<path d="M60.6767 32.4714C60.6028 32.3134 60.5339 32.1822 60.47 32.0773C59.4116 30.1854 57.3891 27.8632 54.4037 25.11L54.3407 25.047L54.3091 25.016L54.2771 24.9844H54.2451C52.8902 23.7024 52.0322 22.8404 51.6729 22.3991C51.0155 21.5584 50.8681 20.7075 51.2275 19.8453C51.4813 19.1939 52.4349 17.8182 54.086 15.7162C54.9544 14.6022 55.6422 13.7094 56.1502 13.0368C59.8134 8.20297 61.4016 5.11407 60.9144 3.76892L60.7252 3.45457C60.5979 3.26532 60.2699 3.09219 59.741 2.9343C59.2112 2.77675 58.5337 2.7507 57.7079 2.85569L48.5611 2.91841C48.413 2.86629 48.2014 2.87115 47.9257 2.9343C47.6503 2.99747 47.5127 3.02916 47.5127 3.02916L47.3535 3.1081L47.227 3.20294C47.1211 3.26565 47.0047 3.37597 46.8777 3.53364C46.7511 3.69075 46.6453 3.87513 46.5608 4.08526C45.565 6.62815 44.4327 8.99241 43.1621 11.1779C42.3786 12.4811 41.6591 13.6105 41.002 14.5668C40.3457 15.5227 39.7952 16.2271 39.3509 16.6785C38.906 17.1305 38.5044 17.4926 38.1436 17.766C37.7836 18.0397 37.5087 18.1552 37.3184 18.1128C37.1277 18.0706 36.948 18.0287 36.7779 17.9867C36.4817 17.7975 36.2433 17.5402 36.0637 17.2144C35.8833 16.8886 35.7618 16.4787 35.6984 15.9848C35.6352 15.4906 35.5977 15.0655 35.5871 14.7081C35.5772 14.3512 35.5816 13.8462 35.6032 13.1948C35.6252 12.5431 35.6352 12.1021 35.6352 11.8709C35.6352 11.0721 35.6508 10.2053 35.6823 9.2701C35.7143 8.33491 35.7402 7.59393 35.7619 7.04805C35.7834 6.50163 35.7934 5.9235 35.7934 5.31403C35.7934 4.70455 35.7562 4.22658 35.6823 3.87965C35.6093 3.53318 35.4973 3.19687 35.3497 2.87083C35.2012 2.54511 34.9838 2.29314 34.6985 2.11428C34.4128 1.93564 34.0575 1.79386 33.6347 1.68853C32.5123 1.43646 31.0832 1.3001 29.3466 1.2789C25.4085 1.23694 22.8782 1.48934 21.756 2.03577C21.3114 2.26665 20.9089 2.5821 20.5492 2.98112C20.168 3.44364 20.1149 3.69605 20.3901 3.73756C21.6606 3.92647 22.5602 4.3784 23.0895 5.09287L23.2803 5.47148C23.4287 5.74464 23.5768 6.22825 23.7253 6.92163C23.8732 7.61502 23.9688 8.38205 24.0108 9.22229C24.1165 10.7567 24.1165 12.0702 24.0108 13.1628C23.9049 14.2559 23.8047 15.1068 23.7092 15.7163C23.6136 16.3258 23.4708 16.8196 23.2803 17.1978C23.0895 17.5762 22.9626 17.8072 22.8991 17.8912C22.8355 17.9751 22.7825 18.0281 22.7405 18.0488C22.4653 18.1534 22.1791 18.2067 21.8827 18.2067C21.5862 18.2067 21.2263 18.0595 20.803 17.765C20.3798 17.4707 19.9404 17.0664 19.4851 16.5515C19.0298 16.0364 18.5164 15.3166 17.9445 14.392C17.373 13.4674 16.7801 12.3747 16.166 11.1138L15.658 10.1993C15.3404 9.61105 14.9065 8.75447 14.356 7.63036C13.8051 6.50581 13.3182 5.41803 12.895 4.36725C12.7258 3.92592 12.4716 3.58994 12.1328 3.35874L11.9739 3.26389C11.8682 3.17998 11.6986 3.09088 11.4658 2.99592C11.2328 2.90107 10.9896 2.83306 10.7353 2.79121L2.03305 2.85393C1.14378 2.85393 0.540409 3.05388 0.222704 3.45324L0.0955562 3.64216C0.0320375 3.74738 0 3.91544 0 4.14674C0 4.37796 0.0635188 4.66172 0.190667 4.99769C1.46104 7.96116 2.84255 10.8192 4.33519 13.5722C5.82782 16.3252 7.12488 18.5429 8.22561 20.2232C9.32658 21.9047 10.4488 23.4915 11.5922 24.9832C12.7357 26.4755 13.4926 27.4318 13.8629 27.8519C14.2336 28.2727 14.5249 28.5874 14.7366 28.7974L15.5307 29.5539C16.0389 30.0584 16.7851 30.6626 17.7696 31.3664C18.7544 32.0707 19.8448 32.7642 21.0411 33.4478C22.2375 34.1301 23.6295 34.6871 25.2177 35.1179C26.8056 35.5489 28.3513 35.722 29.8548 35.6386H33.5071C34.2479 35.575 34.8091 35.3439 35.1906 34.9448L35.317 34.7869C35.402 34.6614 35.4815 34.4665 35.5549 34.2043C35.6293 33.9416 35.6662 33.6522 35.6662 33.3375C35.6445 32.4338 35.7138 31.6197 35.8722 30.8947C36.0305 30.17 36.211 29.6235 36.4128 29.2556C36.6144 28.8879 36.842 28.5776 37.0953 28.326C37.3491 28.0739 37.5301 27.9212 37.6362 27.8687C37.7415 27.8159 37.8258 27.7799 37.8893 27.7584C38.3975 27.5904 38.9954 27.7532 39.6842 28.2475C40.3725 28.7412 41.0181 29.3511 41.6218 30.0758C42.2254 30.8013 42.9504 31.6151 43.7972 32.5186C44.6445 33.4224 45.3854 34.0943 46.0204 34.5363L46.6553 34.9145C47.0795 35.167 47.63 35.3982 48.3076 35.6083C48.984 35.8183 49.5767 35.8708 50.0857 35.7659L58.216 35.6399C59.0202 35.6399 59.6458 35.5079 60.0897 35.2455C60.5345 34.983 60.7987 34.6935 60.8839 34.3787C60.9688 34.0637 60.9734 33.7061 60.9 33.3064C60.8246 32.9078 60.7504 32.6289 60.6767 32.4714Z" fill="white"/>
</mask>
<g mask="url(#mask0)">
<path d="M60.6767 32.4714C60.6028 32.3134 60.5339 32.1822 60.47 32.0773C59.4116 30.1854 57.3891 27.8632 54.4037 25.11L54.3407 25.047L54.3091 25.016L54.2771 24.9844H54.2451C52.8902 23.7024 52.0322 22.8404 51.6729 22.3991C51.0155 21.5584 50.8681 20.7075 51.2275 19.8453C51.4813 19.1939 52.4349 17.8182 54.086 15.7162C54.9544 14.6022 55.6422 13.7094 56.1502 13.0368C59.8134 8.20297 61.4016 5.11407 60.9144 3.76892L60.7252 3.45457C60.5979 3.26532 60.2699 3.09219 59.741 2.9343C59.2112 2.77675 58.5337 2.7507 57.7079 2.85569L48.5611 2.91841C48.413 2.86629 48.2014 2.87115 47.9257 2.9343C47.6503 2.99747 47.5127 3.02916 47.5127 3.02916L47.3535 3.1081L47.227 3.20294C47.1211 3.26565 47.0047 3.37597 46.8777 3.53364C46.7511 3.69075 46.6453 3.87513 46.5608 4.08526C45.565 6.62815 44.4327 8.99241 43.1621 11.1779C42.3786 12.4811 41.6591 13.6105 41.002 14.5668C40.3457 15.5227 39.7952 16.2271 39.3509 16.6785C38.906 17.1305 38.5044 17.4926 38.1436 17.766C37.7836 18.0397 37.5087 18.1552 37.3184 18.1128C37.1276 18.0706 36.948 18.0287 36.7779 17.9867C36.4817 17.7975 36.2433 17.5402 36.0637 17.2144C35.8833 16.8886 35.7618 16.4787 35.6984 15.9848C35.6352 15.4906 35.5977 15.0655 35.5871 14.7081C35.5772 14.3512 35.5816 13.8462 35.6032 13.1948C35.6252 12.5431 35.6352 12.1021 35.6352 11.8709C35.6352 11.0721 35.6508 10.2053 35.6823 9.2701C35.7143 8.33491 35.7402 7.59393 35.7619 7.04805C35.7834 6.50162 35.7934 5.9235 35.7934 5.31403C35.7934 4.70455 35.7562 4.22658 35.6823 3.87965C35.6093 3.53318 35.4973 3.19687 35.3497 2.87083C35.2012 2.54511 34.9838 2.29314 34.6985 2.11428C34.4128 1.93564 34.0575 1.79386 33.6347 1.68853C32.5123 1.43646 31.0832 1.3001 29.3466 1.2789C25.4085 1.23694 22.8782 1.48934 21.756 2.03577C21.3114 2.26665 20.9089 2.5821 20.5492 2.98112C20.168 3.44364 20.1149 3.69605 20.3901 3.73756C21.6606 3.92647 22.5602 4.3784 23.0895 5.09287L23.2803 5.47148C23.4287 5.74464 23.5768 6.22825 23.7253 6.92163C23.8732 7.61502 23.9688 8.38205 24.0108 9.22229C24.1165 10.7567 24.1165 12.0702 24.0108 13.1628C23.9049 14.2559 23.8047 15.1068 23.7092 15.7163C23.6136 16.3258 23.4708 16.8196 23.2803 17.1978C23.0895 17.5762 22.9626 17.8072 22.8991 17.8912C22.8355 17.9751 22.7825 18.0281 22.7405 18.0488C22.4653 18.1534 22.1791 18.2067 21.8827 18.2067C21.5862 18.2067 21.2263 18.0595 20.803 17.765C20.3798 17.4707 19.9404 17.0664 19.4851 16.5515C19.0298 16.0364 18.5164 15.3166 17.9445 14.392C17.373 13.4674 16.7801 12.3747 16.166 11.1138L15.658 10.1993C15.3404 9.61105 14.9065 8.75447 14.356 7.63036C13.8051 6.50581 13.3182 5.41803 12.895 4.36725C12.7258 3.92592 12.4716 3.58994 12.1328 3.35874L11.9739 3.26389C11.8682 3.17998 11.6986 3.09088 11.4658 2.99592C11.2328 2.90107 10.9896 2.83306 10.7353 2.79121L2.03305 2.85393C1.14378 2.85393 0.540409 3.05388 0.222704 3.45324L0.0955562 3.64216C0.0320375 3.74738 0 3.91544 0 4.14674C0 4.37796 0.0635188 4.66172 0.190667 4.99769C1.46104 7.96116 2.84255 10.8192 4.33519 13.5722C5.82782 16.3252 7.12488 18.5429 8.22561 20.2232C9.32658 21.9047 10.4488 23.4915 11.5922 24.9832C12.7357 26.4755 13.4926 27.4318 13.8629 27.8519C14.2336 28.2727 14.5249 28.5874 14.7366 28.7974L15.5307 29.5539C16.0389 30.0584 16.7851 30.6626 17.7696 31.3664C18.7545 32.0707 19.8448 32.7642 21.0411 33.4478C22.2375 34.1301 23.6295 34.6871 25.2177 35.1179C26.8056 35.5489 28.3513 35.722 29.8548 35.6386H33.5071C34.2479 35.575 34.8091 35.3439 35.1906 34.9448L35.317 34.7869C35.402 34.6614 35.4815 34.4665 35.5549 34.2043C35.6293 33.9416 35.6662 33.6522 35.6662 33.3375C35.6445 32.4338 35.7138 31.6197 35.8722 30.8947C36.0305 30.17 36.211 29.6235 36.4128 29.2556C36.6144 28.8879 36.842 28.5776 37.0953 28.326C37.3491 28.0739 37.5301 27.9212 37.6362 27.8687C37.7415 27.8159 37.8258 27.7799 37.8893 27.7584C38.3975 27.5904 38.9954 27.7532 39.6842 28.2475C40.3725 28.7412 41.0181 29.3511 41.6218 30.0758C42.2254 30.8013 42.9504 31.6151 43.7972 32.5186C44.6445 33.4224 45.3854 34.0943 46.0204 34.5363L46.6553 34.9145C47.0795 35.167 47.63 35.3982 48.3076 35.6083C48.984 35.8183 49.5767 35.8708 50.0857 35.7659L58.216 35.6399C59.0202 35.6399 59.6458 35.5079 60.0897 35.2455C60.5345 34.983 60.7987 34.6935 60.8839 34.3787C60.9688 34.0637 60.9734 33.7061 60.9 33.3064C60.8246 32.9078 60.7504 32.6289 60.6767 32.4714Z" stroke="white" stroke-width="5"/>
</g>
</g>
<defs>
<clipPath id="clip0">
<rect width="61" height="37" fill="white" transform="translate(0 0.0458984)"/>
</clipPath>
</defs>
</svg>
