<svg width="870" height="807" viewBox="0 0 870 807" fill="none" xmlns="http://www.w3.org/2000/svg">
<g opacity="0.5">
<g clip-path="url(#clip0)">
<path d="M1077.9 352.652C1075.44 347.268 1075.5 342.628 1071.82 340.991C1068.53 339.559 1066.05 342.254 1062.62 340.3C1061.11 339.425 1060.03 337.614 1057.89 333.853C1055.23 329.226 1055.76 329.091 1054.55 327.619C1051.59 324.089 1048.57 325.56 1043.2 322.306C1041.49 321.329 1039.33 319.068 1035.08 314.625C1029.51 308.909 1027.9 306.373 1025.56 306.73C1022.99 307.125 1022.24 310.657 1020.72 310.282C1018.98 309.945 1020.05 305.315 1017.22 300.447C1016.47 299.259 1014.21 295.337 1010.28 294.378C1006.97 293.585 1005.37 295.629 1001.68 294.492C999.623 293.892 998.235 292.678 997.105 291.647C992.763 287.763 993.793 284.773 990.592 282.781C987.849 281.074 984.264 281.599 981.399 282.09C976.631 282.863 975.713 284.654 973.981 283.816C970.835 282.405 973.314 276.489 969.295 272.369C966.938 270.006 962.991 268.687 959.723 269.474C956.154 270.359 955.345 273.311 953.49 272.812C951.355 272.271 952.298 267.98 949.181 263.569C948.412 262.521 945.193 258.309 940.037 257.878C935.801 257.516 931.937 259.858 931.089 260.729L931.008 260.788C929.923 261.338 927.504 255.173 922.884 253.107C918.802 251.267 916.81 254.467 911.486 252.794C908.416 251.824 908.807 250.667 904.333 248.123C901.369 246.453 896.119 243.361 889.975 243.78C884.852 244.069 883.547 246.516 881.16 245.292C877.637 243.537 879.793 237.858 875.667 234.437C871.74 231.118 865.225 232.553 864.484 232.726C860.415 233.606 859.975 235.541 857.658 235.258C852.964 234.612 852.684 226.629 848.35 225.965C844.156 225.324 841.888 232.202 837.495 231.458C834.5 230.928 834.712 227.67 829.371 223.777C826.869 221.892 823.771 219.701 820.605 220.29C816.197 221.046 815.143 226.536 812.546 226.21C810.029 225.825 810.681 220.631 806.625 218.151C803.683 216.341 800.157 216.946 797.432 217.459C791.922 218.404 791.36 220.679 788.403 220.37C783.209 219.718 782.961 212.455 778.288 211.669C772.578 210.652 768.834 221.095 763.404 220.121C758.532 219.233 759.063 210.158 753.718 208.624C747.555 206.823 742.489 217.493 735.445 215.843C730.337 214.632 730.418 208.493 725.923 207.948C719.251 207.142 714.901 220.139 709.212 218.983C704.981 218.121 705.216 210.503 701.302 209.904C695.791 208.989 691.228 223.384 685.776 222.55C681.722 221.93 681.844 213.651 677.274 212.665C672.004 211.573 668.362 221.817 662.389 221.118C656.975 220.504 656.102 211.715 651.683 211.611C645.683 211.551 642.804 227.563 637.127 227.267C632.869 227.045 632.34 217.879 627.226 217.168C621.215 216.248 617.973 228.557 609.71 228.795C603.969 228.918 602.147 223.059 597.556 224.074C590.902 225.488 590.811 238.707 585.204 239.352C580.699 239.807 578.483 231.385 573.478 231.835C568.533 232.366 567.867 240.92 561.175 242.113C560.514 242.227 560.154 242.243 554.186 241.044C542.528 238.688 541.614 238.119 540.206 238.905C535.44 241.537 538.792 252.351 535.057 253.854C531.865 255.083 528.16 247.505 523.71 248.541C518.818 249.653 519.16 259.577 513.989 260.645C510.662 261.352 508.998 257.736 505.815 257.964C499.59 258.442 500.475 276.032 495.025 277.058C490.676 277.895 487.217 267.78 482.707 268.735C478.778 269.636 479.634 278.065 471.752 284.227C470.2 285.491 468.588 286.676 466.325 286.973C460.638 287.677 457.434 281.964 454.763 283.058C450.566 284.776 455.466 300.906 450.963 303.221C446.862 305.241 439.219 293.484 434.237 295.655C429.476 297.787 432.991 310.343 427.263 313.186C423.243 315.146 419.373 310.048 415.273 312.067C410.007 314.695 413.149 324.547 407.92 327.395C403.154 330.028 397.681 323.253 393.135 325.848C387.805 328.895 391.712 340.294 386.161 343.379C382.179 345.56 378.245 340.881 374.763 343.066C369.449 346.474 374.713 360.226 370.371 362.423C367.114 364.071 362.404 356.984 358.809 358.508C353.687 360.658 358.888 376.69 352.591 380.448C348.346 382.946 343.261 377.375 339.795 379.921C334.637 383.709 341.746 398.961 337.179 401.696C334.503 403.289 331.128 398.695 327.393 400.198C321.971 402.445 325.179 413.737 319.021 417.516C314.615 420.132 310.375 416.05 307.409 418.601C302.225 423.029 310.748 438.855 306.783 441.396C304.408 442.892 300.377 437.912 297.803 439.306C293.198 441.821 301.637 460.065 296.157 464.091C291.966 467.17 283.444 459.285 279.974 462.33C276.159 465.753 284.405 477.315 279.775 482.329C276.6 485.778 270.652 482.579 268.542 485.618C265.213 490.545 277.41 502.927 274.741 505.88C272.759 508.081 265.141 501.765 261.353 504.547C256.921 507.803 263.752 518.792 258.145 525.517C254.562 529.761 249.54 527.991 247.882 531.815C245.526 537.392 254.876 544.545 252.518 548.262C250.629 551.263 244.266 547.5 239.887 551.336C235.933 554.737 235.295 562.651 238.126 567.52C239.758 570.416 241.736 570.576 241.679 572.355C241.575 576.774 228.732 577.027 227.172 583.012C225.923 587.899 233.668 591.517 232.237 596.663C230.848 601.529 223.095 600.772 221.546 605.757C219.975 610.882 227.338 614.655 225.804 620C224.293 625.205 216.4 624.427 215.114 629.094C213.329 635.617 227.043 642.293 225.128 647.795C223.584 652.279 213.502 650.379 211.855 655.063C209.983 660.285 221.262 666.517 219.288 671.938C217.786 676.143 210.264 674.348 208.219 678.828C205.337 685.04 217.451 693.761 214.204 700.489C212.712 703.694 209.341 702.82 208.349 706.031C206.617 711.274 214.915 715.476 213.792 721.886C213.048 726.278 208.752 725.836 207.508 730.224C205.128 738.3 217.842 744.967 215.484 752.904C214.138 757.491 209.359 757.403 209.2 761.242C208.861 767.199 220.078 769.63 219.857 775.748C219.694 780.087 214.071 780.371 213.36 785.484C212.478 791.716 220.367 794.855 219.395 802.145C218.919 805.721 216.838 805.76 216.927 808.921C217.136 814.103 222.642 815.518 223.604 821.388C224.133 824.473 222.633 824.458 222.534 828.378C222.288 836.996 229.543 839.608 228.947 847.242C228.601 851.839 225.902 851.712 226.266 855.416C226.874 862.662 237.041 864.004 237.514 870.729C237.808 875.352 233.218 876.366 233.813 880.892C234.581 886.16 241.097 886.585 242.693 892.981C243.772 897.152 241.246 897.767 242.002 902.175C243.287 909.668 250.901 910.404 251.852 917.273C252.582 922.321 248.674 923.082 249.549 927.651C250.84 934.644 260.216 935.077 261.603 942.371C262.365 946.279 259.741 946.593 260.32 950.759C261.267 958.129 269.38 958.87 272.753 967.683C274.681 972.843 272.16 972.958 274.051 977.897C277.327 986.41 284.912 985.925 289.279 995.249C291.374 999.79 289.81 1000.19 292.19 1004.28C296.045 1010.88 300.511 1010.2 303.274 1015.99C305.8 1021.45 302.813 1024.14 305.757 1027.81C308.937 1031.81 313.182 1029.31 317.105 1033.13C321.64 1037.61 317.946 1043.06 322.547 1048.98C326.261 1053.7 329.425 1051.25 333.681 1055.69C340.213 1062.56 335.941 1071.78 342.084 1075.58C345.166 1077.41 346.745 1075.5 349.666 1077.45C354.97 1081.13 351.213 1088.85 355.487 1095.51C360.154 1102.88 367.58 1098.29 376.784 1105.92C386.107 1113.72 383.141 1122.35 392.177 1126.88C398.426 1129.98 401.042 1126.45 406.748 1129.82C414.682 1134.54 411.699 1142.81 418.967 1148.15C427.267 1154.21 435.502 1146.67 443.324 1152.59C450.629 1158.14 445.389 1166.21 452.319 1173.28C461.428 1182.47 474.865 1172.72 486.626 1182.82C492.694 1188.04 491.924 1193.07 498.894 1196.14C505.665 1199.11 508.463 1195.32 515.883 1197.31C527.493 1200.45 526.684 1211.34 537.509 1214.93C547.657 1218.27 551.741 1209.81 562.13 1212.97C573.675 1216.53 572.577 1228.38 582.95 1231.18C595.178 1234.48 604.999 1220.32 613.212 1225.08C618.601 1228.19 615.575 1234.88 621.073 1239.16C629.588 1245.68 640.776 1232.87 656.499 1236.71C671.184 1240.32 672.308 1254.01 683.93 1253.78C695.112 1253.63 698.36 1240.83 708.65 1241.83C718.301 1242.8 719.187 1254.31 728.714 1255.63C740.419 1257.2 744.422 1240.86 758.27 1240.12C772.618 1239.38 778.148 1256.54 789.731 1254.23C801.616 1251.83 802.707 1232.54 813.153 1232.07C821.657 1231.65 823.791 1244.35 833.43 1244.47C843.629 1244.67 846.171 1230.39 860.19 1228.53C867.28 1227.54 867.444 1231.14 876.965 1231.1C888.126 1231.09 890.375 1226.21 905.451 1222.58C920.007 1219.09 921.15 1222.84 928.888 1219.01C940.646 1213.23 938.311 1204.65 949.3 1197.82C962.744 1189.43 971.004 1199.49 983.163 1191.55C995.645 1183.38 994.38 1167.8 1005.02 1165.57C1010.33 1164.52 1011.58 1169.43 1017.39 1168.89C1026.54 1168 1027.78 1156.17 1039.41 1146.51C1050.97 1136.9 1056.13 1143.42 1067.74 1134.39C1079.67 1125.13 1075.61 1117.07 1089.64 1103.41C1098.98 1094.32 1100.98 1097.56 1109.79 1088.61C1122.52 1075.53 1119.22 1067.66 1130.9 1058.21C1141.42 1049.74 1146.13 1054.46 1153.41 1046.64C1163.94 1035.3 1155.52 1023.5 1165.96 1011.36C1174.32 1001.62 1182.6 1005.96 1188.31 996.181C1193.85 986.656 1187.47 980.172 1193.78 969.834C1199.02 961.266 1204.94 963.245 1208.12 955.576C1212.22 945.616 1203.77 938.672 1208.37 930.577C1212.19 923.795 1219.39 926.826 1223.47 920.727C1230.61 910.017 1213.31 894.064 1220.05 882.291C1224.93 873.739 1236.37 877.993 1240.57 869.694C1246.23 858.47 1228.51 844.313 1234.74 833.034C1238.08 827.107 1243.53 829.801 1247.63 823.562C1254.64 812.831 1240.88 800.854 1247.01 785.554C1250.35 777.267 1255.57 777.778 1257.37 769.256C1258.93 761.911 1255.38 760.296 1254.18 748.023C1252.86 734.229 1257.06 732.511 1254.22 724.422C1250.62 714.286 1242.75 712.868 1243.4 706.314C1244.04 699.76 1252.03 699.479 1253.33 692.812C1255.16 683.65 1241.33 679.172 1241.38 668.092C1241.44 657.872 1253.18 655.449 1252.59 646.202C1251.95 636.876 1239.81 636.235 1236.61 624.443C1234.01 614.816 1240.77 610.343 1239.44 601.27C1237.46 587.589 1215.8 589.354 1212.49 576.401C1210.29 567.838 1218.34 565.278 1217.2 554.946C1215.66 541.19 1200.88 541.003 1194.7 524.321C1190.01 511.514 1196.62 506.159 1190.38 496.477C1184.37 487.117 1177.18 490.665 1169.72 481.871C1157.96 468.053 1168.77 451.18 1157.33 441.346C1149.93 434.992 1143.4 440.287 1136.41 433.138C1128.49 425.058 1134.63 416.199 1126.87 406.641C1119.64 397.809 1112.26 402.976 1103.79 393.812C1095.38 384.728 1101.25 378.186 1091.46 366.888C1085.57 360.049 1081.35 360.047 1077.9 352.652Z" stroke="#E26B13" stroke-width="2" stroke-miterlimit="10"/>
<path d="M1060.4 483.385C923.568 297.112 664.343 255.046 481.408 389.428C298.472 523.811 261.101 783.754 397.935 970.027C534.77 1156.3 793.995 1198.37 976.931 1063.98C1159.87 929.602 1197.24 669.659 1060.4 483.385Z" stroke="#E26B13" stroke-width="2" stroke-miterlimit="10"/>
<path d="M1083.86 468.017C937.703 269.058 660.821 224.13 465.423 367.668C270.025 511.205 230.104 788.854 376.258 987.813C522.411 1186.77 799.293 1231.7 994.691 1088.16C1190.09 944.624 1230.01 666.976 1083.86 468.017Z" stroke="#E26B13" stroke-width="2" stroke-miterlimit="10"/>
<path d="M1124.59 444.921C964.539 227.045 659.541 179.16 443.357 337.967C227.173 496.774 181.667 802.136 341.716 1020.01C501.765 1237.89 806.763 1285.77 1022.95 1126.96C1239.13 968.158 1284.64 662.796 1124.59 444.921Z" stroke="#E26B13" stroke-width="2" stroke-miterlimit="10"/>
<path d="M843.215 652.236C797.113 589.477 708.863 575.974 646.105 622.076C583.346 668.178 569.843 756.427 615.945 819.186C662.047 881.945 750.296 895.448 813.055 849.346C875.814 803.244 889.317 714.994 843.215 652.236Z" stroke="#E26B13" stroke-width="2" stroke-miterlimit="10"/>
<path d="M825.33 660.658C785.833 606.891 710.226 595.322 656.458 634.819C602.691 674.317 591.122 749.923 630.619 803.691C670.117 857.459 745.723 869.027 799.491 829.53C853.259 790.033 864.827 714.426 825.33 660.658Z" stroke="#E26B13" stroke-width="2" stroke-miterlimit="10"/>
<path d="M1081.67 949.819L728.426 771.301" stroke="#E26B13" stroke-width="2" stroke-miterlimit="10"/>
<path d="M1118.01 875.977L741.664 787.633" stroke="#E26B13" stroke-width="2" stroke-miterlimit="10"/>
<path d="M1032.42 1014.53L758.413 692.195" stroke="#E26B13" stroke-width="2" stroke-miterlimit="10"/>
<path d="M976.93 1063.98L758.413 692.195" stroke="#E26B13" stroke-width="2" stroke-miterlimit="10"/>
<path d="M1137.57 799.567L757.921 681.39" stroke="#E26B13" stroke-width="2" stroke-miterlimit="10"/>
<path d="M1130.82 633.292L755.514 762.57" stroke="#E26B13" stroke-width="2" stroke-miterlimit="10"/>
<path d="M1106.14 560.843L741.664 787.633" stroke="#E26B13" stroke-width="2" stroke-miterlimit="10"/>
<path d="M1142.98 717.417L758.413 692.195" stroke="#E26B13" stroke-width="2" stroke-miterlimit="10"/>
<path d="M1066.62 491.847L701.59 694.23" stroke="#E26B13" stroke-width="2" stroke-miterlimit="10"/>
<path d="M954.116 380.924L771.468 747.127" stroke="#E26B13" stroke-width="2" stroke-miterlimit="10"/>
<path d="M880.437 348.19L771.468 747.127" stroke="#E26B13" stroke-width="2" stroke-miterlimit="10"/>
<path d="M1010.39 433.886L654.091 724.16" stroke="#E26B13" stroke-width="2" stroke-miterlimit="10"/>
<path d="M803.321 319.223L691.606 712.732" stroke="#E26B13" stroke-width="2" stroke-miterlimit="10"/>
<path d="M721.599 311.01L684.089 724.458" stroke="#E26B13" stroke-width="2" stroke-miterlimit="10"/>
<path d="M769.368 676.703L638.115 318.981" stroke="#E26B13" stroke-width="2" stroke-miterlimit="10"/>
<path d="M562.065 343.827L758.413 692.195" stroke="#E26B13" stroke-width="2" stroke-miterlimit="10"/>
<path d="M496.835 386.781L695.716 741.975" stroke="#E26B13" stroke-width="2" stroke-miterlimit="10"/>
<path d="M384.464 504.07L757.921 681.389" stroke="#E26B13" stroke-width="2" stroke-miterlimit="10"/>
<path d="M342.373 573.456L716.475 685.778" stroke="#E26B13" stroke-width="2" stroke-miterlimit="10"/>
<path d="M334.133 818.986L704.535 679.659" stroke="#E26B13" stroke-width="2" stroke-miterlimit="10"/>
<path d="M431.884 441.939L694.925 761.168" stroke="#E26B13" stroke-width="2" stroke-miterlimit="10"/>
<path d="M320.987 652.447L715.088 764.968" stroke="#E26B13" stroke-width="2" stroke-miterlimit="10"/>
<path d="M315.948 736.801L715.153 778.569" stroke="#E26B13" stroke-width="2" stroke-miterlimit="10"/>
<path d="M353.387 894.181L716.475 685.778" stroke="#E26B13" stroke-width="2" stroke-miterlimit="10"/>
<path d="M902.293 1107.65L716.83 790.987" stroke="#E26B13" stroke-width="2" stroke-miterlimit="10"/>
<path d="M828.446 1132.11L704.596 754.063" stroke="#E26B13" stroke-width="2" stroke-miterlimit="10"/>
<path d="M743.137 1142.67L783.408 753.246" stroke="#E26B13" stroke-width="2" stroke-miterlimit="10"/>
<path d="M661.201 1135.85L767.947 779.494" stroke="#E26B13" stroke-width="2" stroke-miterlimit="10"/>
<path d="M585.219 1113.5C615.517 987.01 645.896 860.465 676.194 733.98" stroke="#E26B13" stroke-width="2" stroke-miterlimit="10"/>
<path d="M445.692 1024.9L741.664 787.633" stroke="#E26B13" stroke-width="2" stroke-miterlimit="10"/>
<path d="M398.231 970.43L715.153 778.57" stroke="#E26B13" stroke-width="2" stroke-miterlimit="10"/>
<path d="M759.238 780.307C757.233 780.787 748.762 781.923 748.597 784.402C748.501 785.961 751.916 786.555 754.139 790.257C755.754 792.793 756.084 795.777 755.865 797.675C755.14 804.288 746.398 810.461 738.941 810.107C730.145 809.62 729.955 800.577 717.693 794.695C705.49 788.894 697.102 793.691 692.958 788.049C688.577 782.085 700.505 773.323 697.186 765.09C693.868 756.857 680.694 760.206 674.705 753.066C663.872 740.178 677.7 695.153 711.632 680.029C732.123 670.933 762.198 671.671 778.733 690.297C806.445 721.433 777.438 776.368 759.238 780.307Z" fill="#E26B13"/>
</g>
</g>
<defs>
<clipPath id="clip0">
<rect width="1053.1" height="1035.9" fill="white" transform="translate(623.459 1461.99) rotate(-126.301)"/>
</clipPath>
</defs>
</svg>
