<svg width="76" height="21" viewBox="0 0 76 21" fill="none" xmlns="http://www.w3.org/2000/svg">
<g clip-path="url(#clip0)">
<path d="M37.8136 16.4771C28.7107 16.4771 19.6078 16.4771 10.498 16.4771C13.214 10.9871 15.93 5.49006 18.646 0H44.4512C42.2364 5.49006 40.0284 10.9871 37.8136 16.4771Z" fill="white"/>
<path d="M37.7325 17.3539C28.6431 17.3956 19.5537 17.4374 10.4575 17.4791C6.9762 18.4811 3.4881 19.4901 0 20.492C10.0918 20.5616 20.1904 20.6312 30.2822 20.7008C32.7678 19.5875 35.2535 18.4672 37.7325 17.3539Z" fill="white"/>
<path d="M49.6122 18.0567C55.9653 18.0567 62.3184 18.0567 68.6715 18.0567C66.7751 14.2227 64.8854 10.3887 62.9889 6.56163H44.9795C46.5237 10.3887 48.068 14.2227 49.6122 18.0567Z" fill="white"/>
<path d="M49.6665 18.669C56.0128 18.6968 62.3524 18.7247 68.6987 18.7594C71.1302 19.4622 73.5685 20.1581 76 20.8608C68.9561 20.9095 61.9121 20.9583 54.8682 21.007C53.1343 20.2207 51.4004 19.4483 49.6665 18.669Z" fill="white"/>
<path d="M45.7923 16.5189C44.6274 16.5258 43.4624 16.5328 42.2974 16.5398C40.9496 17.8827 39.6086 19.2326 38.2607 20.5756C39.4257 20.6451 40.5974 20.7147 41.7624 20.7843C43.1102 19.3648 44.4513 17.9384 45.7923 16.5189Z" fill="white"/>
</g>
<defs>
<clipPath id="clip0">
<rect width="76" height="21" fill="white"/>
</clipPath>
</defs>
</svg>
