<svg width="51" height="20" viewBox="0 0 51 20" fill="none" xmlns="http://www.w3.org/2000/svg">
<g clip-path="url(#clip0)">
<path d="M25.375 15.6925C19.2664 15.6925 13.1579 15.6925 7.0448 15.6925C8.86736 10.4639 10.6899 5.22862 12.5125 0H29.8291C28.3429 5.22862 26.8612 10.4639 25.375 15.6925Z" fill="black"/>
<path d="M25.3205 16.5275C19.221 16.5673 13.1216 16.607 7.01756 16.6468C4.6814 17.6011 2.3407 18.562 0 19.5162C6.77212 19.5825 13.5488 19.6488 20.3209 19.715C21.9889 18.6547 23.657 17.5878 25.3205 16.5275Z" fill="black"/>
<path d="M33.2925 17.1968C37.5558 17.1968 41.819 17.1968 46.0823 17.1968C44.8097 13.5454 43.5416 9.89398 42.269 6.24918H30.1837C31.22 9.89398 32.2563 13.5454 33.2925 17.1968Z" fill="black"/>
<path d="M33.3289 17.78C37.5876 17.8065 41.8417 17.833 46.1005 17.8661C47.7321 18.5355 49.3684 19.1982 51 19.8675C46.2732 19.9139 41.5463 19.9603 36.8195 20.0066C35.6559 19.2578 34.4924 18.5222 33.3289 17.78Z" fill="black"/>
<path d="M30.7291 15.7323C29.9474 15.7389 29.1656 15.7455 28.3839 15.7522C27.4794 17.0311 26.5795 18.3168 25.675 19.5958C26.4568 19.662 27.2431 19.7283 28.0248 19.7946C28.9293 18.4427 29.8292 17.0842 30.7291 15.7323Z" fill="black"/>
</g>
<defs>
<clipPath id="clip0">
<rect width="51" height="20" fill="white"/>
</clipPath>
</defs>
</svg>
